<svg width="220" height="80" viewBox="0 0 220 80" fill="none" xmlns="http://www.w3.org/2000/svg">
<path d="M32.7996 29.4992C33.3996 29.4992 33.8996 28.9992 33.8996 28.3992C33.8996 27.7992 33.3996 27.1992 32.7996 27.1992C32.1996 27.1992 31.5996 27.6992 31.5996 28.3992C31.5996 28.9992 32.1996 29.4992 32.7996 29.4992ZM32.7996 27.9992C32.9996 27.9992 33.1996 28.1992 33.1996 28.3992C33.1996 28.5992 32.9996 28.7992 32.7996 28.7992C32.5996 28.7992 32.3996 28.5992 32.3996 28.3992C32.3996 28.0992 32.5996 27.9992 32.7996 27.9992Z" fill="#3371B7" stroke="#3371B7" stroke-width="0.1" stroke-miterlimit="10"/>
<path d="M30 23C26.2 23 23 26.1 23 30C23 33.8 26.1 37 30 37C33.9 37 37 33.9 37 30C37 26.2 33.8 23 30 23ZM30 36.2C26.6 36.2 23.8 33.4 23.8 30C23.8 26.6 26.6 23.8 30 23.8C33.4 23.8 36.2 26.6 36.2 30C36.2 33.4 33.4 36.2 30 36.2Z" fill="#3371B7" stroke="#3371B7" stroke-width="0.1" stroke-miterlimit="10"/>
<path d="M34.5992 31.2C34.4992 31.1 34.3992 31 34.2992 31H25.6992C25.5992 31 25.4992 31.1 25.3992 31.2C25.2992 31.3 25.2992 31.4 25.3992 31.6C26.0992 33.6 27.8992 34.9 29.9992 34.9C32.0992 34.9 33.8992 33.6 34.5992 31.6C34.6992 31.5 34.6992 31.3 34.5992 31.2ZM29.9992 34.1C28.3992 34.1 26.9992 33.2 26.2992 31.9H33.5992C32.9992 33.2 31.5992 34.1 29.9992 34.1Z" fill="#3371B7" stroke="#3371B7" stroke-width="0.1" stroke-miterlimit="10"/>
<path d="M27.1996 29.4992C27.7996 29.4992 28.3996 28.9992 28.3996 28.3992C28.3996 27.7992 27.8996 27.1992 27.1996 27.1992C26.5996 27.1992 26.0996 27.6992 26.0996 28.3992C26.0996 28.9992 26.5996 29.4992 27.1996 29.4992ZM27.1996 27.9992C27.3996 27.9992 27.5996 28.1992 27.5996 28.3992C27.5996 28.5992 27.3996 28.7992 27.1996 28.7992C26.9996 28.7992 26.7996 28.5992 26.7996 28.3992C26.7996 28.0992 26.9996 27.9992 27.1996 27.9992Z" fill="#3371B7" stroke="#3371B7" stroke-width="0.1" stroke-miterlimit="10"/>
<path d="M86.4 33.4004H88.7C88.9 33.4004 89.1 33.6004 89.1 33.8004V35.9004C89.1 36.1004 88.9 36.3004 88.7 36.3004H86.4C86.2 36.3004 86 36.1004 86 35.9004V33.8004C86 33.6004 86.1 33.4004 86.4 33.4004Z" stroke="#3371B7"/>
<path d="M95.8004 33.5H98.2004C98.4004 33.5 98.6004 33.7 98.6004 33.9V35.9C98.6004 36.1 98.4004 36.3 98.2004 36.3H95.8004C95.6004 36.3 95.4004 36.1 95.4004 35.9V33.9C95.4004 33.6 95.6004 33.5 95.8004 33.5Z" stroke="#3371B7"/>
<path d="M86 28.4004H98.6V33.4004H86V28.4004Z" stroke="#3371B7"/>
<path d="M87.8 23.5996H96.7C97.7 23.5996 98.6 24.3996 98.6 25.4996V28.5996H86V25.4996C86 24.4996 86.8 23.5996 87.8 23.5996Z" stroke="#3371B7"/>
<path d="M88.4996 31.9004C88.9967 31.9004 89.3996 31.4527 89.3996 30.9004C89.3996 30.3481 88.9967 29.9004 88.4996 29.9004C88.0026 29.9004 87.5996 30.3481 87.5996 30.9004C87.5996 31.4527 88.0026 31.9004 88.4996 31.9004Z" fill="#3371B7"/>
<path d="M96.0992 31.9004C96.5963 31.9004 96.9992 31.4527 96.9992 30.9004C96.9992 30.3481 96.5963 29.9004 96.0992 29.9004C95.6022 29.9004 95.1992 30.3481 95.1992 30.9004C95.1992 31.4527 95.6022 31.9004 96.0992 31.9004Z" fill="#3371B7"/>
<path d="M117.8 30C117.8 33.6 114.9 36.5 111.4 36.5C107.9 36.5 105 33.6 105 30C105 26.4 107.9 23.5 111.4 23.5C114.9 23.5 117.8 26.4 117.8 30Z" stroke="#3371B7"/>
<path d="M117.699 28.5992V28.6992C116.799 28.7992 114.799 28.7992 113.099 27.5992C111.999 26.7992 111.099 25.8992 110.499 25.0992C110.199 24.6992 109.899 24.2992 109.799 24.0992C109.699 23.9992 109.699 23.9992 109.699 23.8992C110.199 23.7992 110.899 23.6992 111.699 23.7992C112.899 23.7992 114.199 24.0992 115.199 24.8992C116.199 25.6992 116.899 26.6992 117.299 27.6992C117.499 27.8992 117.599 28.2992 117.699 28.5992Z" stroke="#3371B7"/>
<path d="M105.4 32.2008V32.1008C106.3 31.9008 108.3 31.7008 110.1 32.7008C111.2 33.4008 112 34.2008 112.5 35.0008C112.9 35.5008 113.1 36.0008 113.2 36.3008C112.8 36.4008 112.2 36.5008 111.5 36.6008C110.5 36.6008 109.4 36.5008 108.3 35.8008C107.2 35.1008 106.4 34.2008 105.9 33.3008C105.6 32.8008 105.5 32.5008 105.4 32.2008Z" stroke="#3371B7"/>
<path d="M134.7 23.8996C134.6 23.7996 134.5 23.7996 134.4 23.7996H133.2L132.9 24.3996C132.2 25.7996 130.3 25.7996 129.6 24.4996L129.2 23.7996H127.9C127.8 23.7996 127.7 23.7996 127.6 23.8996L125 26.7996L126.4 28.7996L127.2 27.9996L127.8 27.3996V28.2996L127.9 36.4996H134.7L134.8 28.2996V27.3996L135.4 27.9996L136.2 28.7996L137.6 26.7996L134.7 23.8996ZM134.7 23.8996L135 23.5996" stroke="#3371B7" stroke-linecap="round"/>
<path d="M131.401 27.6992H133.401V28.5992C133.401 28.9992 133.001 29.2992 132.401 29.2992C131.801 29.2992 131.401 28.9992 131.401 28.5992V27.6992Z" stroke="#3371B7"/>
<path d="M148.4 34.2996C148.4 35.4996 147.4 36.4996 146.2 36.4996C145 36.4996 144 35.4996 144 34.2996C144 33.0996 145 32.0996 146.2 32.0996C147.4 32.0996 148.4 33.0996 148.4 34.2996Z" stroke="#3371B7"/>
<path d="M159.201 34.2996C159.201 35.4996 158.201 36.4996 157.001 36.4996C155.801 36.4996 154.801 35.4996 154.801 34.2996C154.801 33.0996 155.801 32.0996 157.001 32.0996C158.201 32.0996 159.201 33.0996 159.201 34.2996Z" stroke="#3371B7"/>
<path d="M148.401 24.4004V34.3004" stroke="#3371B7"/>
<path d="M159.301 24.4004V34.3004" stroke="#3371B7"/>
<path d="M148.401 23.5H159.201V26.2H148.401V23.5Z" stroke="#3371B7"/>
<path d="M192.81 23.0996C192.51 23.0996 192.31 23.0996 192.01 23.0996C189.91 23.0996 188.01 24.0996 186.71 25.5996H186.61L186.51 25.4996L185.51 24.2996L185.21 27.6996L188.61 27.9996L187.51 26.6996L187.41 26.5996L187.51 26.4996C188.61 24.9996 190.51 24.1996 192.51 24.3996C195.71 24.6996 198.01 27.4996 197.71 30.6996C197.41 33.6996 194.61 35.9996 191.61 35.7996C188.51 35.5996 186.21 32.8996 186.31 29.7996L185.01 29.6996C184.81 33.4996 187.61 36.7996 191.31 37.0996C195.21 37.3996 198.61 34.4996 198.91 30.5996C199.21 26.7996 196.41 23.4996 192.81 23.0996Z" fill="#3371B7"/>
<path d="M192.21 27.6C192.21 27.3 191.91 27 191.61 27C191.31 27 191.01 27.3 191.01 27.6V30.8C191.01 31 191.11 31.1 191.21 31.2C191.31 31.3 191.51 31.4 191.61 31.4H194.01C194.41 31.4 194.61 31.1 194.61 30.8C194.61 30.4 194.31 30.2 194.01 30.2H192.41H192.21V30V27.6Z" fill="#3371B7"/>
<path d="M206.2 23.4004H213.9C215.4 23.4004 216.6 24.6004 216.6 26.1004V33.8004C216.6 35.3004 215.4 36.5004 213.9 36.5004H206.2C204.7 36.5004 203.5 35.3004 203.5 33.8004V26.1004C203.4 24.6004 204.7 23.4004 206.2 23.4004Z" stroke="#3371B7"/>
<path d="M205.999 29.6012C206.385 29.6012 206.699 29.2878 206.699 28.9012C206.699 28.5146 206.385 28.2012 205.999 28.2012C205.612 28.2012 205.299 28.5146 205.299 28.9012C205.299 29.2878 205.612 29.6012 205.999 29.6012Z" fill="#3371B7"/>
<path d="M213.999 27.4C214.385 27.4 214.699 27.0866 214.699 26.7C214.699 26.3134 214.385 26 213.999 26C213.612 26 213.299 26.3134 213.299 26.7C213.299 27.0866 213.612 27.4 213.999 27.4Z" fill="#3371B7"/>
<path d="M206 33.3003L206.4 33.0003C206.8 32.7003 207.4 32.7003 207.9 32.9003L208.9 33.3003C209.4 33.5003 209.9 33.5003 210.4 33.2003L211.2 32.7003C211.6 32.4003 212.2 32.4003 212.7 32.6003L214.5 33.4003" stroke="#3371B7" stroke-linecap="round"/>
<path d="M178 24.3004C177.8 24.2004 177.6 24.2004 177.5 24.3004C177.5 24.3004 177.3 24.4004 176.6 24.5004C175.9 24.5004 174.2 24.4004 172.8 23.9004C172 23.6004 171.1 23.4004 170.3 23.4004C170.1 23.4004 169.9 23.4004 169.8 23.4004C168.5 23.4004 167.3 23.7004 166.2 24.4004C166 24.5004 166 24.6004 166 24.8004V36.4004C166 36.7004 166.1 36.9004 166.3 36.9004C166.9 36.9004 166.8 36.5004 166.8 36.3004V30.6004C167.5 30.3004 170 29.5004 172.6 30.5004C174.2 31.1004 176.1 31.2004 176.9 31.2004C177.7 31.2004 178.2 30.9004 178.2 30.9004C178.4 30.8004 178.5 30.7004 178.5 30.5004V24.8004C178.2 24.6004 178.1 24.4004 178 24.3004ZM177.6 30.2004C177.5 30.2004 176.9 30.3004 176.6 30.3004C175.9 30.3004 174.2 30.2004 172.8 29.7004C170.3 28.7004 167.8 29.2004 166.6 29.6004V24.7004C167.5 24.2004 168.8 24.0004 169.8 24.0004C169.9 24.0004 170.1 24.0004 170.2 24.0004C170.9 24.0004 171.7 24.2004 172.4 24.4004C174 25.0004 175.9 25.1004 176.7 25.1004C176.9 25.1004 177.5 25.1004 177.7 25.0004V30.2004H177.6Z" fill="#3371B7" stroke="#3371B7" stroke-width="0.25" stroke-miterlimit="10"/>
<path d="M70.873 23.5H74.573C77.073 23.5 79.073 25.5 79.073 28C79.073 28.5 78.673 28.9 78.173 28.9H67.273C66.773 28.9 66.373 28.5 66.373 28C66.373 25.5 68.373 23.5 70.873 23.5Z" stroke="#3371B7"/>
<path d="M66.2736 28.8008C66.0736 28.9008 65.7736 30.0008 66.2736 30.3008C67.6736 31.3008 74.7736 31.1008 77.5736 30.9008C78.3736 30.8008 79.1736 30.5008 79.2736 29.7008C79.2736 29.4008 79.1736 29.1008 78.6736 28.8008" stroke="#3371B7" stroke-linecap="round"/>
<path d="M66.2741 30.6004L66.0741 31.0004C65.8741 31.5004 66.2741 32.0004 66.7741 31.9004C67.0741 31.8004 67.2741 31.9004 67.4741 32.2004L67.5741 32.4004C67.8741 32.9004 68.5741 33.0004 69.0741 32.6004C69.3741 32.4004 69.7741 32.3004 70.0741 32.4004L70.8741 32.7004C71.2741 32.9004 71.6741 32.8004 72.0741 32.7004L72.5741 32.5004C72.9741 32.3004 73.4741 32.3004 73.8741 32.5004L74.3741 32.7004C74.7741 32.9004 75.1741 32.9004 75.5741 32.7004L75.7741 32.6004C76.0741 32.4004 76.5741 32.4004 76.8741 32.7004L77.0741 32.9004C77.3741 33.2004 77.8741 33.1004 78.0741 32.7004L78.1741 32.5004C78.2741 32.3004 78.1741 32.2004 78.3741 32.2004C78.8741 32.2004 79.5741 31.9004 79.4741 31.5004L79.0741 30.4004" stroke="#3371B7" stroke-linecap="round"/>
<path d="M66.2737 32.1992C66.1737 32.3992 65.9737 32.9992 66.2737 33.2992C66.5737 33.6992 69.2737 34.3992 72.6737 34.3992C74.8737 34.3992 77.2737 34.0992 78.6737 33.7992C79.1737 33.6992 79.5737 33.2992 79.4737 32.8992C79.4737 32.6992 79.2737 32.3992 79.0737 32.1992" stroke="#3371B7" stroke-linecap="round"/>
<path d="M66.2734 33.3008C66.2734 33.8008 66.8734 35.6008 67.5734 36.0008C69.3734 36.8008 73.2734 36.7008 75.6734 36.5008C76.9734 36.4008 78.1734 35.8008 78.8734 34.7008C79.1734 34.2008 79.3734 33.7008 79.3734 33.3008" stroke="#3371B7" stroke-linecap="round"/>
<path d="M74.3742 26.8996C74.5399 26.8996 74.6742 26.7205 74.6742 26.4996C74.6742 26.2787 74.5399 26.0996 74.3742 26.0996C74.2085 26.0996 74.0742 26.2787 74.0742 26.4996C74.0742 26.7205 74.2085 26.8996 74.3742 26.8996Z" fill="#3371B7"/>
<path d="M75.7727 25.3996C75.9384 25.3996 76.0727 25.2205 76.0727 24.9996C76.0727 24.7787 75.9384 24.5996 75.7727 24.5996C75.607 24.5996 75.4727 24.7787 75.4727 24.9996C75.4727 25.2205 75.607 25.3996 75.7727 25.3996Z" fill="#3371B7"/>
<path d="M75.7727 27.6008C75.9384 27.6008 76.0727 27.4217 76.0727 27.2008C76.0727 26.9799 75.9384 26.8008 75.7727 26.8008C75.607 26.8008 75.4727 26.9799 75.4727 27.2008C75.4727 27.4217 75.607 27.6008 75.7727 27.6008Z" fill="#3371B7"/>
<path d="M77.0734 26.8996C77.2391 26.8996 77.3734 26.7205 77.3734 26.4996C77.3734 26.2787 77.2391 26.0996 77.0734 26.0996C76.9077 26.0996 76.7734 26.2787 76.7734 26.4996C76.7734 26.7205 76.9077 26.8996 77.0734 26.8996Z" fill="#3371B7"/>
<path d="M73.673 25.3996C73.8387 25.3996 73.973 25.2205 73.973 24.9996C73.973 24.7787 73.8387 24.5996 73.673 24.5996C73.5073 24.5996 73.373 24.7787 73.373 24.9996C73.373 25.2205 73.5073 25.3996 73.673 25.3996Z" fill="#3371B7"/>
<path d="M45 31.0004V23.4004C45.1 23.5004 45.8 24.3004 47.8 26.5004C50.3 24.9004 53.4 25.8004 54.7 26.5004L57.1 23.4004V30.5004C57.1 31.7004 57 33.0004 56.2 33.9004C55.2 35.1004 53.5 36.4004 50.9 36.4004C48 36.4004 46.4 34.9004 45.6 33.5004C45 32.9004 45 32.0004 45 31.0004Z" stroke="#3371B7"/>
<path d="M42 30L47.4 31.2" stroke="#3371B7" stroke-linecap="round"/>
<path d="M42 34.1004L47.4 32.9004" stroke="#3371B7" stroke-linecap="round"/>
<path d="M59.5992 30L54.1992 31.2" stroke="#3371B7" stroke-linecap="round"/>
<path d="M59.5992 34.1004L54.1992 32.9004" stroke="#3371B7" stroke-linecap="round"/>
<path fill-rule="evenodd" clip-rule="evenodd" d="M50.3006 32.3996L49.8006 31.6996C49.6006 31.3996 49.8006 31.0996 50.1006 31.0996H51.5006C51.8006 31.0996 52.0006 31.4996 51.8006 31.6996L51.1006 32.6996C50.4006 33.8996 48.5006 33.7996 48.0006 32.3996L47.9006 32.1996C47.8006 31.9996 47.9006 31.7996 48.1006 31.6996C48.3006 31.5996 48.5006 31.6996 48.6006 31.8996L48.7006 32.0996C49.1006 32.7996 49.9006 32.8996 50.3006 32.3996Z" fill="#3371B7"/>
<path d="M53.2008 32.0996L53.1008 32.2996C52.7008 33.2996 51.3008 33.3996 50.8008 32.4996" stroke="#3371B7" stroke-linecap="round"/>
<path d="M48.3992 30.4C48.7858 30.4 49.0992 30.0866 49.0992 29.7C49.0992 29.3134 48.7858 29 48.3992 29C48.0126 29 47.6992 29.3134 47.6992 29.7C47.6992 30.0866 48.0126 30.4 48.3992 30.4Z" fill="#3371B7"/>
<path d="M53.2 30.4C53.5866 30.4 53.9 30.0866 53.9 29.7C53.9 29.3134 53.5866 29 53.2 29C52.8134 29 52.5 29.3134 52.5 29.7C52.5 30.0866 52.8134 30.4 53.2 30.4Z" fill="#3371B7"/>
<path d="M32.7996 49.4992C33.3996 49.4992 33.8996 48.9992 33.8996 48.3992C33.8996 47.7992 33.3996 47.1992 32.7996 47.1992C32.1996 47.1992 31.5996 47.6992 31.5996 48.3992C31.5996 48.9992 32.1996 49.4992 32.7996 49.4992ZM32.7996 47.9992C32.9996 47.9992 33.1996 48.1992 33.1996 48.3992C33.1996 48.5992 32.9996 48.7992 32.7996 48.7992C32.5996 48.7992 32.3996 48.5992 32.3996 48.3992C32.3996 48.0992 32.5996 47.9992 32.7996 47.9992Z" fill="#C0C0BF" stroke="#C0C0BF" stroke-width="0.1" stroke-miterlimit="10"/>
<path d="M34.5992 51.2C34.4992 51.1 34.3992 51 34.2992 51H25.6992C25.5992 51 25.4992 51.1 25.3992 51.2C25.2992 51.3 25.2992 51.4 25.3992 51.6C26.0992 53.6 27.8992 54.9 29.9992 54.9C32.0992 54.9 33.8992 53.6 34.5992 51.6C34.6992 51.5 34.6992 51.3 34.5992 51.2ZM29.9992 54.1C28.3992 54.1 26.9992 53.2 26.2992 51.9H33.5992C32.9992 53.2 31.5992 54.1 29.9992 54.1Z" fill="#C0C0BF" stroke="#C0C0BF" stroke-width="0.1" stroke-miterlimit="10"/>
<path d="M27.1996 49.4992C27.7996 49.4992 28.3996 48.9992 28.3996 48.3992C28.3996 47.7992 27.8996 47.1992 27.1996 47.1992C26.5996 47.1992 26.0996 47.6992 26.0996 48.3992C26.0996 48.9992 26.5996 49.4992 27.1996 49.4992ZM27.1996 47.9992C27.3996 47.9992 27.5996 48.1992 27.5996 48.3992C27.5996 48.5992 27.3996 48.7992 27.1996 48.7992C26.9996 48.7992 26.7996 48.5992 26.7996 48.3992C26.7996 48.0992 26.9996 47.9992 27.1996 47.9992Z" fill="#C0C0BF" stroke="#C0C0BF" stroke-width="0.1" stroke-miterlimit="10"/>
<path d="M30 43C26.2 43 23 46.1 23 50C23 53.8 26.1 57 30 57C33.9 57 37 53.9 37 50C37 46.2 33.8 43 30 43ZM30 56.2C26.6 56.2 23.8 53.4 23.8 50C23.8 46.6 26.6 43.8 30 43.8C33.4 43.8 36.2 46.6 36.2 50C36.2 53.4 33.4 56.2 30 56.2Z" fill="#C0C0BF" stroke="#C0C0BF" stroke-width="0.1" stroke-miterlimit="10"/>
<path d="M86.4 53.4004H88.7C88.9 53.4004 89.1 53.6004 89.1 53.8004V55.9004C89.1 56.1004 88.9 56.3004 88.7 56.3004H86.4C86.2 56.3004 86 56.1004 86 55.9004V53.8004C86 53.6004 86.1 53.4004 86.4 53.4004Z" stroke="#C0C0BF"/>
<path d="M95.8004 53.5H98.2004C98.4004 53.5 98.6004 53.7 98.6004 53.9V55.9C98.6004 56.1 98.4004 56.3 98.2004 56.3H95.8004C95.6004 56.3 95.4004 56.1 95.4004 55.9V53.9C95.4004 53.6 95.6004 53.5 95.8004 53.5Z" stroke="#C0C0BF"/>
<path d="M86 48.4004H98.6V53.4004H86V48.4004Z" stroke="#C0C0BF"/>
<path d="M87.8 43.5996H96.7C97.7 43.5996 98.6 44.3996 98.6 45.4996V48.5996H86V45.4996C86 44.4996 86.8 43.5996 87.8 43.5996Z" stroke="#C0C0BF"/>
<path d="M88.4996 51.9004C88.9967 51.9004 89.3996 51.4527 89.3996 50.9004C89.3996 50.3481 88.9967 49.9004 88.4996 49.9004C88.0026 49.9004 87.5996 50.3481 87.5996 50.9004C87.5996 51.4527 88.0026 51.9004 88.4996 51.9004Z" fill="#C0C0BF"/>
<path d="M96.0992 51.9004C96.5963 51.9004 96.9992 51.4527 96.9992 50.9004C96.9992 50.3481 96.5963 49.9004 96.0992 49.9004C95.6022 49.9004 95.1992 50.3481 95.1992 50.9004C95.1992 51.4527 95.6022 51.9004 96.0992 51.9004Z" fill="#C0C0BF"/>
<path d="M117.8 50C117.8 53.6 114.9 56.5 111.4 56.5C107.9 56.5 105 53.6 105 50C105 46.4 107.9 43.5 111.4 43.5C114.9 43.5 117.8 46.4 117.8 50Z" stroke="#C0C0BF"/>
<path d="M117.699 48.5996V48.6996C116.799 48.7996 114.799 48.7996 113.099 47.4996C111.999 46.6996 111.099 45.7996 110.499 44.9996C110.199 44.5996 109.899 44.1996 109.799 43.9996C109.699 43.8996 109.699 43.7996 109.699 43.7996C110.199 43.6996 110.899 43.5996 111.699 43.5996C112.899 43.5996 114.199 43.8996 115.199 44.6996C116.199 45.4996 116.899 46.4996 117.299 47.4996C117.499 47.8996 117.599 48.2996 117.699 48.5996Z" stroke="#C0C0BF"/>
<path d="M105.4 52.2008V52.1008C106.3 51.9008 108.3 51.7008 110.1 52.7008C111.2 53.4008 112 54.2008 112.5 55.0008C112.9 55.5008 113.1 56.0008 113.2 56.3008C112.8 56.4008 112.2 56.5008 111.5 56.6008C110.5 56.6008 109.4 56.5008 108.3 55.8008C107.2 55.1008 106.4 54.2008 105.9 53.3008C105.6 52.8008 105.5 52.5008 105.4 52.2008Z" stroke="#C0C0BF"/>
<path d="M134.7 43.8996C134.6 43.7996 134.5 43.7996 134.4 43.7996H133.2L132.9 44.3996C132.2 45.7996 130.3 45.7996 129.6 44.4996L129.2 43.7996H127.9C127.8 43.7996 127.7 43.7996 127.6 43.8996L125 46.7996L126.4 48.7996L127.2 47.9996L127.8 47.2996V48.1996L127.9 56.3996H134.7L134.8 48.1996V47.2996L135.4 47.9996L136.2 48.7996L137.6 46.7996L134.7 43.8996ZM134.7 43.8996L135 43.5996" stroke="#C0C0BF" stroke-linecap="round"/>
<path d="M131.401 47.6992H133.401V48.5992C133.401 48.9992 133.001 49.2992 132.401 49.2992C131.801 49.2992 131.401 48.9992 131.401 48.5992V47.6992Z" stroke="#C0C0BF"/>
<path d="M148.4 54.2996C148.4 55.4996 147.4 56.4996 146.2 56.4996C145 56.4996 144 55.4996 144 54.2996C144 53.0996 145 52.0996 146.2 52.0996C147.4 52.0996 148.4 53.0996 148.4 54.2996Z" stroke="#C0C0BF"/>
<path d="M159.201 54.2996C159.201 55.4996 158.201 56.4996 157.001 56.4996C155.801 56.4996 154.801 55.4996 154.801 54.2996C154.801 53.0996 155.801 52.0996 157.001 52.0996C158.201 52.0996 159.201 53.0996 159.201 54.2996Z" stroke="#C0C0BF"/>
<path d="M148.401 44.4004V54.3004" stroke="#C0C0BF"/>
<path d="M159.301 44.4004V54.3004" stroke="#C0C0BF"/>
<path d="M148.401 43.5H159.201V46.2H148.401V43.5Z" stroke="#C0C0BF"/>
<path d="M192.81 43.0996C192.51 43.0996 192.31 43.0996 192.01 43.0996C189.91 43.0996 188.01 44.0996 186.71 45.5996H186.61L186.51 45.4996L185.51 44.2996L185.21 47.6996L188.61 47.9996L187.51 46.6996L187.41 46.5996L187.51 46.4996C188.61 44.9996 190.51 44.1996 192.51 44.3996C195.71 44.6996 198.01 47.4996 197.71 50.6996C197.41 53.6996 194.61 55.9996 191.61 55.7996C188.51 55.5996 186.21 52.8996 186.31 49.7996L185.01 49.6996C184.81 53.4996 187.61 56.7996 191.31 57.0996C195.21 57.3996 198.61 54.4996 198.91 50.5996C199.21 46.7996 196.41 43.4996 192.81 43.0996Z" fill="#C0C0BF"/>
<path d="M192.31 47.3988C192.31 47.0988 192.01 46.7988 191.71 46.7988C191.41 46.7988 191.11 47.0988 191.11 47.3988V50.5988C191.11 50.7988 191.21 50.8988 191.31 50.9988C191.41 51.0988 191.61 51.1988 191.71 51.1988H194.11C194.51 51.1988 194.71 50.8988 194.71 50.5988C194.71 50.2988 194.41 49.9988 194.11 49.9988H192.51H192.31V49.7988V47.3988Z" fill="#C0C0BF"/>
<path d="M206.2 43.4004H213.9C215.4 43.4004 216.6 44.6004 216.6 46.1004V53.8004C216.6 55.3004 215.4 56.5004 213.9 56.5004H206.2C204.7 56.5004 203.5 55.3004 203.5 53.8004V46.1004C203.4 44.7004 204.7 43.4004 206.2 43.4004Z" stroke="#C0C0BF"/>
<path d="M205.999 49.6012C206.385 49.6012 206.699 49.2878 206.699 48.9012C206.699 48.5146 206.385 48.2012 205.999 48.2012C205.612 48.2012 205.299 48.5146 205.299 48.9012C205.299 49.2878 205.612 49.6012 205.999 49.6012Z" fill="#C0C0BF"/>
<path d="M213.999 47.4C214.385 47.4 214.699 47.0866 214.699 46.7C214.699 46.3134 214.385 46 213.999 46C213.612 46 213.299 46.3134 213.299 46.7C213.299 47.0866 213.612 47.4 213.999 47.4Z" fill="#C0C0BF"/>
<path d="M206 53.3003L206.4 53.0003C206.8 52.7003 207.4 52.7003 207.9 52.9003L208.9 53.3003C209.4 53.5003 209.9 53.5003 210.4 53.2003L211.2 52.7003C211.6 52.4003 212.2 52.4003 212.7 52.6003L214.5 53.4003" stroke="#C0C0BF" stroke-linecap="round"/>
<path d="M178 44.3004C177.8 44.2004 177.6 44.2004 177.5 44.3004C177.5 44.3004 177.3 44.4004 176.6 44.5004C175.9 44.5004 174.2 44.4004 172.8 43.9004C172 43.6004 171.1 43.4004 170.3 43.4004C170.1 43.4004 169.9 43.4004 169.8 43.4004C168.5 43.4004 167.3 43.7004 166.2 44.4004C166 44.5004 166 44.6004 166 44.8004V56.4004C166 56.7004 166.1 56.9004 166.3 56.9004C166.9 56.9004 166.8 56.5004 166.8 56.3004V50.6004C167.5 50.3004 170 49.5004 172.6 50.5004C174.2 51.1004 176.1 51.2004 176.9 51.2004C177.7 51.2004 178.2 50.9004 178.2 50.9004C178.4 50.8004 178.5 50.7004 178.5 50.5004V44.8004C178.2 44.6004 178.1 44.4004 178 44.3004ZM177.6 50.2004C177.5 50.2004 176.9 50.3004 176.6 50.3004C175.9 50.3004 174.2 50.2004 172.8 49.7004C170.3 48.7004 167.8 49.2004 166.6 49.6004V44.7004C167.5 44.2004 168.8 44.0004 169.8 44.0004C169.9 44.0004 170.1 44.0004 170.2 44.0004C170.9 44.0004 171.7 44.2004 172.4 44.4004C174 45.0004 175.9 45.1004 176.7 45.1004C176.9 45.1004 177.5 45.1004 177.7 45.0004V50.2004H177.6Z" fill="#C0C0BF" stroke="#C0C0BF" stroke-width="0.25" stroke-miterlimit="10"/>
<path d="M70.873 43.5H74.573C77.073 43.5 79.073 45.5 79.073 48C79.073 48.5 78.673 48.9 78.173 48.9H67.273C66.773 48.9 66.373 48.5 66.373 48C66.373 45.5 68.373 43.5 70.873 43.5Z" stroke="#C0C0BF"/>
<path d="M66.2736 48.8008C66.0736 48.9008 65.7736 50.0008 66.2736 50.3008C67.6736 51.3008 74.7736 51.1008 77.5736 50.9008C78.3736 50.8008 79.1736 50.5008 79.2736 49.7008C79.2736 49.4008 79.1736 49.1008 78.6736 48.8008" stroke="#C0C0BF" stroke-linecap="round"/>
<path d="M66.2741 50.6004L66.0741 51.0004C65.8741 51.5004 66.2741 52.0004 66.7741 51.9004C67.0741 51.8004 67.2741 51.9004 67.4741 52.2004L67.5741 52.4004C67.8741 52.9004 68.5741 53.0004 69.0741 52.6004C69.3741 52.4004 69.7741 52.3004 70.0741 52.4004L70.8741 52.7004C71.2741 52.9004 71.6741 52.8004 72.0741 52.7004L72.5741 52.5004C72.9741 52.3004 73.4741 52.3004 73.8741 52.5004L74.3741 52.7004C74.7741 52.9004 75.1741 52.9004 75.5741 52.7004L75.7741 52.6004C76.0741 52.4004 76.5741 52.4004 76.8741 52.7004L77.0741 52.9004C77.3741 53.2004 77.8741 53.1004 78.0741 52.7004L78.1741 52.5004C78.2741 52.3004 78.1741 52.2004 78.3741 52.2004C78.8741 52.2004 79.5741 51.9004 79.4741 51.5004L79.0741 50.4004" stroke="#C0C0BF" stroke-linecap="round"/>
<path d="M66.2737 52.1992C66.1737 52.3992 65.9737 52.9992 66.2737 53.2992C66.5737 53.6992 69.2737 54.3992 72.6737 54.3992C74.8737 54.3992 77.2737 54.0992 78.6737 53.7992C79.1737 53.6992 79.5737 53.2992 79.4737 52.8992C79.4737 52.6992 79.2737 52.3992 79.0737 52.1992" stroke="#C0C0BF" stroke-linecap="round"/>
<path d="M66.2734 53.3008C66.2734 53.8008 66.8734 55.6008 67.5734 56.0008C69.3734 56.8008 73.2734 56.7008 75.6734 56.5008C76.9734 56.4008 78.1734 55.8008 78.8734 54.7008C79.1734 54.2008 79.3734 53.7008 79.3734 53.3008" stroke="#C0C0BF" stroke-linecap="round"/>
<path d="M74.3742 46.8996C74.5399 46.8996 74.6742 46.7205 74.6742 46.4996C74.6742 46.2787 74.5399 46.0996 74.3742 46.0996C74.2085 46.0996 74.0742 46.2787 74.0742 46.4996C74.0742 46.7205 74.2085 46.8996 74.3742 46.8996Z" fill="#C0C0BF"/>
<path d="M75.7727 45.3996C75.9384 45.3996 76.0727 45.2205 76.0727 44.9996C76.0727 44.7787 75.9384 44.5996 75.7727 44.5996C75.607 44.5996 75.4727 44.7787 75.4727 44.9996C75.4727 45.2205 75.607 45.3996 75.7727 45.3996Z" fill="#C0C0BF"/>
<path d="M75.7727 47.6008C75.9384 47.6008 76.0727 47.4217 76.0727 47.2008C76.0727 46.9799 75.9384 46.8008 75.7727 46.8008C75.607 46.8008 75.4727 46.9799 75.4727 47.2008C75.4727 47.4217 75.607 47.6008 75.7727 47.6008Z" fill="#C0C0BF"/>
<path d="M77.0734 46.8996C77.2391 46.8996 77.3734 46.7205 77.3734 46.4996C77.3734 46.2787 77.2391 46.0996 77.0734 46.0996C76.9077 46.0996 76.7734 46.2787 76.7734 46.4996C76.7734 46.7205 76.9077 46.8996 77.0734 46.8996Z" fill="#C0C0BF"/>
<path d="M73.673 45.3996C73.8387 45.3996 73.973 45.2205 73.973 44.9996C73.973 44.7787 73.8387 44.5996 73.673 44.5996C73.5073 44.5996 73.373 44.7787 73.373 44.9996C73.373 45.2205 73.5073 45.3996 73.673 45.3996Z" fill="#C0C0BF"/>
<path d="M45 51.0004V43.4004C45.1 43.5004 45.8 44.3004 47.8 46.5004C50.3 44.8004 53.4 45.8004 54.7 46.5004L57.1 43.4004V50.5004C57.1 51.7004 57 53.0004 56.2 53.9004C55.2 55.1004 53.5 56.4004 50.9 56.4004C48 56.4004 46.4 54.9004 45.6 53.5004C45 52.9004 45 52.0004 45 51.0004Z" stroke="#C0C0BF"/>
<path d="M42 50L47.4 51.2" stroke="#C0C0BF" stroke-linecap="round"/>
<path d="M42 54.1004L47.4 52.9004" stroke="#C0C0BF" stroke-linecap="round"/>
<path d="M59.5992 50L54.1992 51.2" stroke="#C0C0BF" stroke-linecap="round"/>
<path d="M59.5992 54.1004L54.1992 52.9004" stroke="#C0C0BF" stroke-linecap="round"/>
<path fill-rule="evenodd" clip-rule="evenodd" d="M50.3006 52.3996L49.8006 51.6996C49.6006 51.3996 49.8006 51.0996 50.1006 51.0996H51.5006C51.8006 51.0996 52.0006 51.4996 51.8006 51.6996L51.1006 52.6996C50.4006 53.8996 48.5006 53.7996 48.0006 52.3996L47.9006 52.1996C47.8006 51.9996 47.9006 51.7996 48.1006 51.6996C48.3006 51.5996 48.5006 51.6996 48.6006 51.8996L48.7006 52.0996C49.1006 52.7996 49.9006 52.8996 50.3006 52.3996Z" fill="#C0C0BF"/>
<path d="M53.2008 52.0996L53.1008 52.2996C52.7008 53.2996 51.3008 53.3996 50.8008 52.4996" stroke="#C0C0BF" stroke-linecap="round"/>
<path d="M48.3992 50.4C48.7858 50.4 49.0992 50.0866 49.0992 49.7C49.0992 49.3134 48.7858 49 48.3992 49C48.0126 49 47.6992 49.3134 47.6992 49.7C47.6992 50.0866 48.0126 50.4 48.3992 50.4Z" fill="#C0C0BF"/>
<path d="M53.2 50.4C53.5866 50.4 53.9 50.0866 53.9 49.7C53.9 49.3134 53.5866 49 53.2 49C52.8134 49 52.5 49.3134 52.5 49.7C52.5 50.0866 52.8134 50.4 53.2 50.4Z" fill="#C0C0BF"/>
<path d="M34.5992 71.2C34.4992 71.1 34.3992 71 34.2992 71H25.6992C25.5992 71 25.4992 71.1 25.3992 71.2C25.2992 71.3 25.2992 71.4 25.3992 71.6C26.0992 73.6 27.8992 74.9 29.9992 74.9C32.0992 74.9 33.8992 73.6 34.5992 71.6C34.6992 71.5 34.6992 71.3 34.5992 71.2ZM29.9992 74.1C28.3992 74.1 26.9992 73.2 26.2992 71.9H33.5992C32.9992 73.2 31.5992 74.1 29.9992 74.1Z" fill="#6AA9DD" stroke="#6AA9DD" stroke-width="0.1" stroke-miterlimit="10"/>
<path d="M32.7996 69.4992C33.3996 69.4992 33.8996 68.9992 33.8996 68.3992C33.8996 67.7992 33.3996 67.1992 32.7996 67.1992C32.1996 67.1992 31.5996 67.6992 31.5996 68.3992C31.5996 68.9992 32.1996 69.4992 32.7996 69.4992ZM32.7996 67.9992C32.9996 67.9992 33.1996 68.1992 33.1996 68.3992C33.1996 68.5992 32.9996 68.7992 32.7996 68.7992C32.5996 68.7992 32.3996 68.5992 32.3996 68.3992C32.3996 68.0992 32.5996 67.9992 32.7996 67.9992Z" fill="#6AA9DD" stroke="#6AA9DD" stroke-width="0.1" stroke-miterlimit="10"/>
<path d="M27.1996 69.4992C27.7996 69.4992 28.3996 68.9992 28.3996 68.3992C28.3996 67.7992 27.8996 67.1992 27.1996 67.1992C26.5996 67.1992 26.0996 67.6992 26.0996 68.3992C26.0996 68.9992 26.5996 69.4992 27.1996 69.4992ZM27.1996 67.9992C27.3996 67.9992 27.5996 68.1992 27.5996 68.3992C27.5996 68.5992 27.3996 68.7992 27.1996 68.7992C26.9996 68.7992 26.7996 68.5992 26.7996 68.3992C26.7996 68.0992 26.9996 67.9992 27.1996 67.9992Z" fill="#6AA9DD" stroke="#6AA9DD" stroke-width="0.1" stroke-miterlimit="10"/>
<path d="M30 63C26.2 63 23 66.1 23 70C23 73.8 26.1 77 30 77C33.9 77 37 73.9 37 70C37 66.2 33.8 63 30 63ZM30 76.2C26.6 76.2 23.8 73.4 23.8 70C23.8 66.6 26.6 63.8 30 63.8C33.4 63.8 36.2 66.6 36.2 70C36.2 73.4 33.4 76.2 30 76.2Z" fill="#6AA9DD" stroke="#6AA9DD" stroke-width="0.1" stroke-miterlimit="10"/>
<path d="M86.4 73.4004H88.7C88.9 73.4004 89.1 73.6004 89.1 73.8004V75.9004C89.1 76.1004 88.9 76.3004 88.7 76.3004H86.4C86.2 76.3004 86 76.1004 86 75.9004V73.8004C86 73.6004 86.1 73.4004 86.4 73.4004Z" stroke="#6AA9DD"/>
<path d="M95.8004 73.5H98.2004C98.4004 73.5 98.6004 73.7 98.6004 73.9V76C98.6004 76.2 98.4004 76.4 98.2004 76.4H95.8004C95.6004 76.4 95.4004 76.2 95.4004 76V73.9C95.4004 73.6 95.6004 73.5 95.8004 73.5Z" stroke="#6AA9DD"/>
<path d="M86 68.4004H98.6V73.4004H86V68.4004Z" stroke="#6AA9DD"/>
<path d="M87.8 63.5996H96.7C97.7 63.5996 98.6 64.3996 98.6 65.4996V68.5996H86V65.4996C86 64.4996 86.8 63.5996 87.8 63.5996Z" stroke="#6AA9DD"/>
<path d="M88.4996 71.8C88.9967 71.8 89.3996 71.3971 89.3996 70.9C89.3996 70.4029 88.9967 70 88.4996 70C88.0026 70 87.5996 70.4029 87.5996 70.9C87.5996 71.3971 88.0026 71.8 88.4996 71.8Z" fill="#6AA9DD"/>
<path d="M96.0992 71.8C96.5963 71.8 96.9992 71.3971 96.9992 70.9C96.9992 70.4029 96.5963 70 96.0992 70C95.6022 70 95.1992 70.4029 95.1992 70.9C95.1992 71.3971 95.6022 71.8 96.0992 71.8Z" fill="#6AA9DD"/>
<path d="M117.8 70C117.8 73.6 114.9 76.5 111.4 76.5C107.9 76.5 105 73.6 105 70C105 66.4 107.9 63.5 111.4 63.5C114.9 63.5 117.8 66.4 117.8 70Z" stroke="#6AA9DD"/>
<path d="M117.699 68.6V68.7C116.799 68.8 114.799 68.8 113.099 67.5C111.999 66.7 111.099 65.8 110.499 65C110.199 64.6 109.899 64.2 109.799 63.9C109.699 63.8 109.699 63.7 109.699 63.7C110.199 63.6 110.899 63.5 111.699 63.5C112.899 63.5 114.199 63.8 115.199 64.6C116.199 65.4 116.899 66.4 117.299 67.4C117.499 67.9 117.599 68.3 117.699 68.6Z" stroke="#6AA9DD"/>
<path d="M105.4 72.2008V72.1008C106.3 71.9008 108.3 71.7008 110.1 72.7008C111.2 73.4008 112 74.2008 112.5 75.0008C112.9 75.5008 113.1 76.0008 113.2 76.3008C112.8 76.4008 112.2 76.5008 111.5 76.6008C110.5 76.6008 109.4 76.5008 108.3 75.8008C107.2 75.1008 106.4 74.2008 105.9 73.3008C105.6 72.8008 105.5 72.4008 105.4 72.2008Z" stroke="#6AA9DD"/>
<path d="M134.7 63.8996C134.6 63.7996 134.5 63.7996 134.4 63.7996H133.2L132.9 64.3996C132.2 65.7996 130.3 65.7996 129.6 64.4996L129.2 63.7996H127.9C127.8 63.7996 127.7 63.7996 127.6 63.8996L125 66.7996L126.4 68.7996L127.2 67.9996L127.8 67.2996V68.1996L127.9 76.3996H134.7L134.8 68.1996V67.2996L135.4 67.9996L136.2 68.7996L137.6 66.7996L134.7 63.8996ZM134.7 63.8996L135 63.5996" stroke="#6AA9DD" stroke-linecap="round"/>
<path d="M131.401 67.6992H133.401V68.5992C133.401 68.9992 133.001 69.2992 132.401 69.2992C131.801 69.2992 131.401 68.9992 131.401 68.5992V67.6992Z" stroke="#6AA9DD"/>
<path d="M148.4 74.2996C148.4 75.4996 147.4 76.4996 146.2 76.4996C145 76.4996 144 75.4996 144 74.2996C144 73.0996 145 72.0996 146.2 72.0996C147.4 72.0996 148.4 73.0996 148.4 74.2996Z" stroke="#6AA9DD"/>
<path d="M159.201 74.2996C159.201 75.4996 158.201 76.4996 157.001 76.4996C155.801 76.4996 154.801 75.4996 154.801 74.2996C154.801 73.0996 155.801 72.0996 157.001 72.0996C158.201 72.0996 159.201 73.0996 159.201 74.2996Z" stroke="#6AA9DD"/>
<path d="M148.401 64.4004V74.3004" stroke="#6AA9DD"/>
<path d="M159.301 64.4004V74.3004" stroke="#6AA9DD"/>
<path d="M148.401 63.5H159.201V66.2H148.401V63.5Z" stroke="#6AA9DD"/>
<path d="M192.81 63.0996C192.51 63.0996 192.31 63.0996 192.01 63.0996C189.91 63.0996 188.01 64.0996 186.71 65.5996H186.61L186.51 65.4996L185.51 64.2996L185.21 67.6996L188.61 67.9996L187.51 66.6996L187.41 66.5996L187.51 66.4996C188.61 65.0996 190.51 64.1996 192.51 64.3996C195.71 64.6996 198.01 67.4996 197.71 70.6996C197.41 73.6996 194.61 75.9996 191.61 75.7996C188.51 75.5996 186.21 72.8996 186.31 69.7996L185.01 69.6996C184.81 73.4996 187.61 76.7996 191.31 77.0996C195.21 77.3996 198.61 74.4996 198.91 70.5996C199.21 66.7996 196.41 63.4996 192.81 63.0996Z" fill="#6AA9DD"/>
<path d="M192.31 67.3988C192.31 67.0988 192.01 66.7988 191.71 66.7988C191.41 66.7988 191.11 67.0988 191.11 67.3988V70.5988C191.11 70.7988 191.21 70.8988 191.31 70.9988C191.41 71.0988 191.61 71.1988 191.71 71.1988H194.11C194.51 71.1988 194.71 70.8988 194.71 70.5988C194.71 70.2988 194.41 69.9988 194.01 69.9988H192.41H192.21V69.7988L192.31 67.3988Z" fill="#6AA9DD"/>
<path d="M206.2 63.4004H213.9C215.4 63.4004 216.6 64.6004 216.6 66.1004V73.8004C216.6 75.3004 215.4 76.5004 213.9 76.5004H206.2C204.7 76.5004 203.5 75.3004 203.5 73.8004V66.1004C203.4 64.7004 204.7 63.4004 206.2 63.4004Z" stroke="#6AA9DD"/>
<path d="M205.999 69.6012C206.385 69.6012 206.699 69.2878 206.699 68.9012C206.699 68.5146 206.385 68.2012 205.999 68.2012C205.612 68.2012 205.299 68.5146 205.299 68.9012C205.299 69.2878 205.612 69.6012 205.999 69.6012Z" fill="#6AA9DD"/>
<path d="M213.999 67.4C214.385 67.4 214.699 67.0866 214.699 66.7C214.699 66.3134 214.385 66 213.999 66C213.612 66 213.299 66.3134 213.299 66.7C213.299 67.0866 213.612 67.4 213.999 67.4Z" fill="#6AA9DD"/>
<path d="M206 73.3003L206.4 73.0003C206.8 72.7003 207.4 72.7003 207.9 72.9003L208.9 73.3003C209.4 73.5003 209.9 73.5003 210.4 73.2003L211.2 72.7003C211.6 72.4003 212.2 72.4003 212.7 72.6003L214.5 73.4003" stroke="#6AA9DD" stroke-linecap="round"/>
<path d="M178 64.3004C177.8 64.2004 177.6 64.2004 177.5 64.3004C177.5 64.3004 177.3 64.4004 176.6 64.5004C175.9 64.5004 174.2 64.4004 172.8 63.9004C172 63.6004 171.1 63.4004 170.3 63.4004C170.1 63.4004 169.9 63.4004 169.8 63.4004C168.5 63.4004 167.3 63.7004 166.2 64.4004C166 64.5004 166 64.6004 166 64.8004V76.4004C166 76.7004 166.1 76.9004 166.3 76.9004C166.9 76.9004 166.8 76.5004 166.8 76.3004V70.6004C167.5 70.3004 170 69.5004 172.6 70.5004C174.2 71.1004 176.1 71.2004 176.9 71.2004C177.7 71.2004 178.2 70.9004 178.2 70.9004C178.4 70.8004 178.5 70.7004 178.5 70.5004V64.8004C178.2 64.6004 178.1 64.4004 178 64.3004ZM177.6 70.2004C177.5 70.2004 176.9 70.3004 176.6 70.3004C175.9 70.3004 174.2 70.2004 172.8 69.7004C170.3 68.7004 167.8 69.2004 166.6 69.6004V64.7004C167.5 64.2004 168.8 64.0004 169.8 64.0004C169.9 64.0004 170.1 64.0004 170.2 64.0004C170.9 64.0004 171.7 64.2004 172.4 64.4004C174 65.0004 175.9 65.1004 176.7 65.1004C176.9 65.1004 177.5 65.1004 177.7 65.0004V70.2004H177.6Z" fill="#6AA9DD" stroke="#6AA9DD" stroke-width="0.25" stroke-miterlimit="10"/>
<path d="M70.873 63.5H74.573C77.073 63.5 79.073 65.5 79.073 68C79.073 68.5 78.673 68.9 78.173 68.9H67.273C66.773 68.9 66.373 68.5 66.373 68C66.373 65.5 68.373 63.5 70.873 63.5Z" stroke="#6AA9DD"/>
<path d="M66.2736 68.8008C66.0736 68.9008 65.7736 70.0008 66.2736 70.3008C67.6736 71.2008 74.7736 71.1008 77.5736 70.9008C78.3736 70.8008 79.1736 70.5008 79.2736 69.7008C79.2736 69.4008 79.1736 69.1008 78.6736 68.8008" stroke="#6AA9DD" stroke-linecap="round"/>
<path d="M66.2741 70.6008L66.0741 71.0008C65.8741 71.5008 66.2741 72.0008 66.7741 71.9008C67.0741 71.8008 67.2741 72.0008 67.4741 72.2008L67.5741 72.4008C67.8741 72.9008 68.5741 73.0008 69.0741 72.6008C69.3741 72.4008 69.7741 72.3008 70.0741 72.4008L70.8741 72.7008C71.2741 72.9008 71.6741 72.8008 72.0741 72.7008L72.5741 72.5008C72.9741 72.3008 73.4741 72.3008 73.8741 72.5008L74.3741 72.7008C74.7741 72.9008 75.1741 72.9008 75.5741 72.6008L75.7741 72.5008C76.0741 72.3008 76.5741 72.3008 76.8741 72.6008L77.0741 72.8008C77.3741 73.1008 77.8741 73.0008 78.0741 72.6008L78.1741 72.4008C78.2741 72.2008 78.1741 72.1008 78.3741 72.1008C78.8741 72.1008 79.5741 71.8008 79.4741 71.4008L79.0741 70.3008" stroke="#6AA9DD" stroke-linecap="round"/>
<path d="M66.2737 72.1992C66.1737 72.3992 65.9737 72.9992 66.2737 73.2992C66.5737 73.6992 69.2737 74.3992 72.6737 74.3992C74.8737 74.3992 77.2737 74.0992 78.6737 73.7992C79.1737 73.6992 79.5737 73.3992 79.4737 72.8992C79.4737 72.6992 79.2737 72.3992 79.0737 72.1992" stroke="#6AA9DD" stroke-linecap="round"/>
<path d="M66.2734 73.3008C66.2734 73.8008 66.8734 75.6008 67.5734 76.0008C69.3734 76.8008 73.2734 76.7008 75.6734 76.5008C76.9734 76.4008 78.1734 75.8008 78.8734 74.7008C79.1734 74.2008 79.3734 73.7008 79.3734 73.3008" stroke="#6AA9DD" stroke-linecap="round"/>
<path d="M74.3742 66.8996C74.5399 66.8996 74.6742 66.7205 74.6742 66.4996C74.6742 66.2787 74.5399 66.0996 74.3742 66.0996C74.2085 66.0996 74.0742 66.2787 74.0742 66.4996C74.0742 66.7205 74.2085 66.8996 74.3742 66.8996Z" fill="#6AA9DD"/>
<path d="M75.7727 65.3996C75.9384 65.3996 76.0727 65.2205 76.0727 64.9996C76.0727 64.7787 75.9384 64.5996 75.7727 64.5996C75.607 64.5996 75.4727 64.7787 75.4727 64.9996C75.4727 65.2205 75.607 65.3996 75.7727 65.3996Z" fill="#6AA9DD"/>
<path d="M75.7727 67.6008C75.9384 67.6008 76.0727 67.4217 76.0727 67.2008C76.0727 66.9799 75.9384 66.8008 75.7727 66.8008C75.607 66.8008 75.4727 66.9799 75.4727 67.2008C75.4727 67.4217 75.607 67.6008 75.7727 67.6008Z" fill="#6AA9DD"/>
<path d="M77.0734 66.8996C77.2391 66.8996 77.3734 66.7205 77.3734 66.4996C77.3734 66.2787 77.2391 66.0996 77.0734 66.0996C76.9077 66.0996 76.7734 66.2787 76.7734 66.4996C76.7734 66.7205 76.9077 66.8996 77.0734 66.8996Z" fill="#6AA9DD"/>
<path d="M73.673 65.3996C73.8387 65.3996 73.973 65.2205 73.973 64.9996C73.973 64.7787 73.8387 64.5996 73.673 64.5996C73.5073 64.5996 73.373 64.7787 73.373 64.9996C73.373 65.2205 73.5073 65.3996 73.673 65.3996Z" fill="#6AA9DD"/>
<path d="M45 71.0004V63.4004C45.1 63.5004 45.8 64.3004 47.8 66.5004C50.3 64.8004 53.4 65.8004 54.7 66.5004L57.1 63.4004V70.5004C57.1 71.7004 57 73.0004 56.2 73.9004C55.2 75.1004 53.5 76.4004 50.9 76.4004C48 76.4004 46.4 74.9004 45.6 73.5004C45 72.9004 45 72.0004 45 71.0004Z" stroke="#6AA9DD"/>
<path d="M42 70.0996L47.4 71.2996" stroke="#6AA9DD" stroke-linecap="round"/>
<path d="M42 74.1004L47.4 72.9004" stroke="#6AA9DD" stroke-linecap="round"/>
<path d="M59.5992 70.0996L54.1992 71.2996" stroke="#6AA9DD" stroke-linecap="round"/>
<path d="M59.5992 74.1004L54.1992 72.9004" stroke="#6AA9DD" stroke-linecap="round"/>
<path fill-rule="evenodd" clip-rule="evenodd" d="M50.3006 72.3996L49.8006 71.6996C49.6006 71.3996 49.8006 71.0996 50.1006 71.0996H51.5006C51.8006 71.0996 52.0006 71.4996 51.8006 71.6996L51.1006 72.6996C50.4006 73.8996 48.5006 73.7996 48.0006 72.3996L47.9006 72.1996C47.8006 71.9996 47.9006 71.7996 48.1006 71.6996C48.3006 71.5996 48.5006 71.6996 48.6006 71.8996L48.7006 72.0996C49.1006 72.7996 49.9006 72.8996 50.3006 72.3996Z" fill="#6AA9DD"/>
<path d="M53.2008 72.0996L53.1008 72.2996C52.7008 73.2996 51.3008 73.3996 50.8008 72.4996" stroke="#6AA9DD" stroke-linecap="round"/>
<path d="M48.3992 70.4C48.7858 70.4 49.0992 70.0866 49.0992 69.7C49.0992 69.3134 48.7858 69 48.3992 69C48.0126 69 47.6992 69.3134 47.6992 69.7C47.6992 70.0866 48.0126 70.4 48.3992 70.4Z" fill="#6AA9DD"/>
<path d="M53.2 70.4C53.5866 70.4 53.9 70.0866 53.9 69.7C53.9 69.3134 53.5866 69 53.2 69C52.8134 69 52.5 69.3134 52.5 69.7C52.5 70.0866 52.8134 70.4 53.2 70.4Z" fill="#6AA9DD"/>
<path d="M32.7996 9.49922C33.3996 9.49922 33.8996 8.99922 33.8996 8.29922C33.8996 7.69922 33.3996 7.19922 32.7996 7.19922C32.1996 7.19922 31.5996 7.69922 31.5996 8.29922C31.5996 8.89922 32.1996 9.49922 32.7996 9.49922ZM32.7996 7.89922C32.9996 7.89922 33.1996 8.09922 33.1996 8.29922C33.1996 8.49922 32.9996 8.69922 32.7996 8.69922C32.5996 8.69922 32.3996 8.49922 32.3996 8.29922C32.3996 8.09922 32.5996 7.89922 32.7996 7.89922Z" fill="#868686" stroke="#868686" stroke-width="0.1" stroke-miterlimit="10"/>
<path d="M27.1996 9.49922C27.7996 9.49922 28.3996 8.99922 28.3996 8.29922C28.3996 7.69922 27.8996 7.19922 27.1996 7.19922C26.5996 7.19922 26.0996 7.69922 26.0996 8.29922C26.0996 8.89922 26.5996 9.49922 27.1996 9.49922ZM27.1996 7.89922C27.3996 7.89922 27.5996 8.09922 27.5996 8.29922C27.5996 8.49922 27.3996 8.69922 27.1996 8.69922C26.9996 8.69922 26.7996 8.49922 26.7996 8.29922C26.7996 8.09922 26.9996 7.89922 27.1996 7.89922Z" fill="#868686" stroke="#868686" stroke-width="0.1" stroke-miterlimit="10"/>
<path d="M34.5992 11.2C34.4992 11.1 34.3992 11 34.2992 11H25.6992C25.5992 11 25.4992 11.1 25.3992 11.2C25.2992 11.3 25.2992 11.4 25.3992 11.6C26.0992 13.6 27.8992 14.9 29.9992 14.9C32.0992 14.9 33.8992 13.6 34.5992 11.6C34.6992 11.4 34.6992 11.3 34.5992 11.2ZM29.9992 14.1C28.3992 14.1 26.9992 13.2 26.2992 11.9H33.5992C32.9992 13.2 31.5992 14.1 29.9992 14.1Z" fill="#868686" stroke="#868686" stroke-width="0.1" stroke-miterlimit="10"/>
<path d="M30 3C26.2 3 23 6.1 23 10C23 13.9 26.1 17 30 17C33.9 17 37 13.9 37 10C37 6.1 33.8 3 30 3ZM30 16.2C26.6 16.2 23.8 13.4 23.8 10C23.8 6.6 26.6 3.8 30 3.8C33.4 3.8 36.2 6.6 36.2 10C36.2 13.4 33.4 16.2 30 16.2Z" fill="#868686" stroke="#868686" stroke-width="0.1" stroke-miterlimit="10"/>
<path d="M86.4 13.4004H88.7C88.9 13.4004 89.1 13.6004 89.1 13.8004V15.9004C89.1 16.1004 88.9 16.3004 88.7 16.3004H86.4C86.2 16.3004 86 16.1004 86 15.9004V13.8004C86 13.6004 86.1 13.4004 86.4 13.4004Z" stroke="#868686"/>
<path d="M95.8004 13.4004H98.2004C98.4004 13.4004 98.6004 13.6004 98.6004 13.8004V15.9004C98.6004 16.1004 98.4004 16.3004 98.2004 16.3004H95.8004C95.6004 16.3004 95.4004 16.1004 95.4004 15.9004V13.8004C95.4004 13.6004 95.6004 13.4004 95.8004 13.4004Z" stroke="#868686"/>
<path d="M86 8.40039H98.6V13.4004H86V8.40039Z" stroke="#868686"/>
<path d="M87.8 3.59961H96.7C97.7 3.59961 98.6 4.39961 98.6 5.49961V8.59961H86V5.49961C86 4.39961 86.8 3.59961 87.8 3.59961Z" stroke="#868686"/>
<path d="M88.4996 11.8C88.9967 11.8 89.3996 11.3971 89.3996 10.9C89.3996 10.4029 88.9967 10 88.4996 10C88.0026 10 87.5996 10.4029 87.5996 10.9C87.5996 11.3971 88.0026 11.8 88.4996 11.8Z" fill="#868686"/>
<path d="M96.0992 11.8C96.5963 11.8 96.9992 11.3971 96.9992 10.9C96.9992 10.4029 96.5963 10 96.0992 10C95.6022 10 95.1992 10.4029 95.1992 10.9C95.1992 11.3971 95.6022 11.8 96.0992 11.8Z" fill="#868686"/>
<path d="M117.8 10C117.8 13.6 114.9 16.5 111.4 16.5C107.9 16.5 105 13.6 105 10C105 6.4 107.9 3.5 111.4 3.5C114.9 3.5 117.8 6.4 117.8 10Z" stroke="#868686"/>
<path d="M117.699 8.6V8.7C116.799 8.8 114.799 8.8 113.099 7.5C111.999 6.7 111.099 5.8 110.499 5C110.199 4.6 109.899 4.2 109.799 3.9C109.699 3.8 109.699 3.7 109.699 3.7C110.199 3.6 110.899 3.5 111.699 3.5C112.899 3.5 114.199 3.8 115.199 4.6C116.199 5.4 116.899 6.4 117.299 7.4C117.499 7.9 117.599 8.3 117.699 8.6Z" stroke="#868686"/>
<path d="M105.4 12.0992V11.9992C106.3 11.7992 108.3 11.5992 110.1 12.5992C111.2 13.1992 112 14.0992 112.5 14.8992C112.9 15.3992 113.1 15.8992 113.2 16.1992C112.8 16.2992 112.2 16.3992 111.5 16.4992C110.5 16.4992 109.4 16.3992 108.3 15.6992C107.2 15.0992 106.4 14.0992 105.9 13.1992C105.6 12.7992 105.5 12.3992 105.4 12.0992Z" stroke="#868686"/>
<path d="M134.7 3.89961C134.6 3.79961 134.5 3.79961 134.4 3.79961H133.2L132.9 4.39961C132.2 5.79961 130.3 5.79961 129.6 4.49961L129.2 3.79961H127.9C127.8 3.79961 127.7 3.79961 127.6 3.89961L125 6.79961L126.4 8.79961L127.2 7.99961L127.8 7.29961V8.19961L127.9 16.3996H134.7L134.8 8.19961V7.29961L135.4 7.99961L136.2 8.79961L137.6 6.79961L134.7 3.89961ZM134.7 3.89961L135 3.59961" stroke="#868686" stroke-linecap="round"/>
<path d="M131.401 7.69922H133.401V8.59922C133.401 8.99922 133.001 9.29922 132.401 9.29922C131.801 9.29922 131.401 8.99922 131.401 8.59922V7.69922Z" stroke="#868686"/>
<path d="M148.4 14.2996C148.4 15.4996 147.4 16.4996 146.2 16.4996C145 16.4996 144 15.4996 144 14.2996C144 13.0996 145 12.0996 146.2 12.0996C147.4 12.0996 148.4 13.0996 148.4 14.2996Z" stroke="#868686"/>
<path d="M159.201 14.2996C159.201 15.4996 158.201 16.4996 157.001 16.4996C155.801 16.4996 154.801 15.4996 154.801 14.2996C154.801 13.0996 155.801 12.0996 157.001 12.0996C158.201 12.0996 159.201 13.0996 159.201 14.2996Z" stroke="#868686"/>
<path d="M148.401 4.40039V14.3004" stroke="#868686"/>
<path d="M159.301 4.40039V14.3004" stroke="#868686"/>
<path d="M148.401 3.5H159.201V6.2H148.401V3.5Z" stroke="#868686"/>
<path d="M192.81 3.09961C192.51 3.09961 192.31 3.09961 192.01 3.09961C189.91 3.09961 188.01 4.09961 186.71 5.59961H186.61L186.51 5.49961L185.51 4.29961L185.21 7.69961L188.61 7.99961L187.51 6.69961L187.41 6.59961L187.51 6.49961C188.61 5.09961 190.51 4.19961 192.51 4.39961C195.71 4.69961 198.01 7.49961 197.71 10.6996C197.41 13.6996 194.61 15.9996 191.61 15.7996C188.51 15.5996 186.21 12.8996 186.31 9.79961L185.01 9.49961C184.81 13.2996 187.61 16.5996 191.31 16.8996C195.21 17.2996 198.61 14.2996 198.91 10.3996C199.21 6.79961 196.41 3.49961 192.81 3.09961Z" fill="#868686"/>
<path d="M192.31 7.39883C192.31 7.09883 192.01 6.79883 191.71 6.79883C191.41 6.79883 191.01 7.09883 191.01 7.39883V10.5988C191.01 10.7988 191.11 10.8988 191.21 10.9988C191.31 11.0988 191.51 11.1988 191.61 11.1988H194.01C194.41 11.1988 194.61 10.8988 194.61 10.5988C194.61 10.2988 194.31 9.99883 194.01 9.99883H192.41H192.21V9.79883L192.31 7.39883Z" fill="#868686"/>
<path d="M206.2 3.40039H213.9C215.4 3.40039 216.6 4.60039 216.6 6.10039V13.8004C216.6 15.3004 215.4 16.5004 213.9 16.5004H206.2C204.7 16.5004 203.5 15.3004 203.5 13.8004V6.10039C203.4 4.60039 204.7 3.40039 206.2 3.40039Z" stroke="#868686"/>
<path d="M205.999 9.60117C206.385 9.60117 206.699 9.28777 206.699 8.90117C206.699 8.51457 206.385 8.20117 205.999 8.20117C205.612 8.20117 205.299 8.51457 205.299 8.90117C205.299 9.28777 205.612 9.60117 205.999 9.60117Z" fill="#868686"/>
<path d="M213.999 7.4C214.385 7.4 214.699 7.0866 214.699 6.7C214.699 6.3134 214.385 6 213.999 6C213.612 6 213.299 6.3134 213.299 6.7C213.299 7.0866 213.612 7.4 213.999 7.4Z" fill="#868686"/>
<path d="M206 13.3003L206.4 13.0003C206.8 12.7003 207.4 12.7003 207.9 12.9003L208.9 13.3003C209.4 13.5003 209.9 13.5003 210.4 13.2003L211.2 12.7003C211.6 12.4003 212.2 12.4003 212.7 12.6003L214.5 13.4003" stroke="#868686" stroke-linecap="round"/>
<path d="M178 4.30078C177.8 4.20078 177.6 4.20078 177.5 4.30078C177.5 4.30078 177.3 4.40078 176.6 4.40078C175.9 4.40078 174.2 4.30078 172.8 3.80078C172 3.50078 171.1 3.30078 170.3 3.30078C170.1 3.30078 169.9 3.30078 169.8 3.30078C168.5 3.30078 167.3 3.60078 166.2 4.30078C166 4.40078 166 4.50078 166 4.70078V16.3008C166 16.6008 166.1 16.8008 166.3 16.8008C166.9 16.8008 166.8 16.4008 166.8 16.2008V10.5008C167.5 10.2008 170 9.40078 172.6 10.4008C174.2 11.0008 176.1 11.1008 176.9 11.1008C177.7 11.1008 178.2 10.8008 178.2 10.8008C178.4 10.7008 178.5 10.6008 178.5 10.4008V4.70078C178.2 4.50078 178.1 4.40078 178 4.30078ZM177.6 10.2008C177.5 10.2008 176.9 10.3008 176.6 10.3008C175.9 10.3008 174.2 10.2008 172.8 9.70078C170.3 8.70078 167.8 9.20078 166.6 9.60078V4.70078C167.5 4.20078 168.8 4.00078 169.8 4.00078C169.9 4.00078 170.1 4.00078 170.2 4.00078C170.9 4.00078 171.7 4.20078 172.4 4.40078C174 5.00078 175.9 5.10078 176.7 5.10078C176.9 5.10078 177.5 5.10078 177.7 5.00078V10.2008H177.6Z" fill="#868686" stroke="#868686" stroke-width="0.25" stroke-miterlimit="10"/>
<path d="M70.873 3.5H74.573C77.073 3.5 79.073 5.5 79.073 8C79.073 8.5 78.673 8.9 78.173 8.9H67.273C66.773 8.9 66.373 8.5 66.373 8C66.373 5.5 68.373 3.5 70.873 3.5Z" stroke="#868686"/>
<path d="M66.2736 8.69922C66.0736 8.79922 65.7736 9.89922 66.2736 10.1992C67.6736 11.0992 74.7736 10.9992 77.5736 10.7992C78.3736 10.6992 79.1736 10.3992 79.2736 9.59922C79.2736 9.29922 79.1736 8.99922 78.6736 8.69922" stroke="#868686" stroke-linecap="round"/>
<path d="M66.2741 10.5992L66.0741 10.9992C65.8741 11.4992 66.2741 11.9992 66.7741 11.8992C67.0741 11.7992 67.2741 11.9992 67.4741 12.1992L67.5741 12.3992C67.8741 12.8992 68.5741 12.9992 69.0741 12.5992C69.3741 12.3992 69.7741 12.2992 70.0741 12.3992L70.8741 12.6992C71.2741 12.7992 71.6741 12.7992 72.0741 12.6992L72.5741 12.4992C72.9741 12.2992 73.4741 12.2992 73.8741 12.4992L74.3741 12.6992C74.7741 12.8992 75.1741 12.7992 75.5741 12.5992L75.7741 12.4992C76.0741 12.2992 76.5741 12.3992 76.8741 12.5992L77.0741 12.7992C77.3741 13.0992 77.8741 12.9992 78.0741 12.5992L78.1741 12.3992C78.2741 12.1992 78.1741 12.0992 78.3741 11.9992C78.8741 11.9992 79.5741 11.6992 79.4741 11.2992L79.0741 10.1992" stroke="#868686" stroke-linecap="round"/>
<path d="M66.2737 12.0996C66.1737 12.2996 65.9737 12.8996 66.2737 13.1996C66.5737 13.5996 69.2737 14.2996 72.6737 14.2996C74.8737 14.2996 77.2737 13.9996 78.6737 13.6996C79.1737 13.5996 79.5737 13.2996 79.4737 12.7996C79.4737 12.5996 79.2737 12.2996 79.0737 12.0996" stroke="#868686" stroke-linecap="round"/>
<path d="M66.2734 13.2992C66.2734 13.7992 66.8734 15.6992 67.5734 15.8992C69.3734 16.6992 73.2734 16.5992 75.6734 16.3992C76.9734 16.2992 78.1734 15.6992 78.8734 14.5992C79.1734 14.0992 79.3734 13.5992 79.3734 13.1992" stroke="#868686" stroke-linecap="round"/>
<path d="M74.3742 6.89961C74.5399 6.89961 74.6742 6.72052 74.6742 6.49961C74.6742 6.2787 74.5399 6.09961 74.3742 6.09961C74.2085 6.09961 74.0742 6.2787 74.0742 6.49961C74.0742 6.72052 74.2085 6.89961 74.3742 6.89961Z" fill="#868686"/>
<path d="M75.7727 5.3C75.9384 5.3 76.0727 5.12091 76.0727 4.9C76.0727 4.67909 75.9384 4.5 75.7727 4.5C75.607 4.5 75.4727 4.67909 75.4727 4.9C75.4727 5.12091 75.607 5.3 75.7727 5.3Z" fill="#868686"/>
<path d="M75.7727 7.60078C75.9384 7.60078 76.0727 7.42169 76.0727 7.20078C76.0727 6.97987 75.9384 6.80078 75.7727 6.80078C75.607 6.80078 75.4727 6.97987 75.4727 7.20078C75.4727 7.42169 75.607 7.60078 75.7727 7.60078Z" fill="#868686"/>
<path d="M77.0734 6.89961C77.2391 6.89961 77.3734 6.72052 77.3734 6.49961C77.3734 6.2787 77.2391 6.09961 77.0734 6.09961C76.9077 6.09961 76.7734 6.2787 76.7734 6.49961C76.7734 6.72052 76.9077 6.89961 77.0734 6.89961Z" fill="#868686"/>
<path d="M73.673 5.3C73.8387 5.3 73.973 5.12091 73.973 4.9C73.973 4.67909 73.8387 4.5 73.673 4.5C73.5073 4.5 73.373 4.67909 73.373 4.9C73.373 5.12091 73.5073 5.3 73.673 5.3Z" fill="#868686"/>
<path d="M45 11V3.5C45.1 3.6 45.8 4.4 47.8 6.6C50.3 4.9 53.4 5.9 54.7 6.6L57.1 3.5V10.6C57.1 11.8 57 13.1 56.2 14C55.2 15.2 53.5 16.5 50.9 16.5C48 16.5 46.4 15 45.6 13.6C45 12.9 45 11.9 45 11Z" stroke="#868686"/>
<path d="M42 10L47.4 11.2" stroke="#868686" stroke-linecap="round"/>
<path d="M42 14.1004L47.4 12.9004" stroke="#868686" stroke-linecap="round"/>
<path d="M59.5992 10L54.1992 11.2" stroke="#868686" stroke-linecap="round"/>
<path d="M59.5992 14.1004L54.1992 12.9004" stroke="#868686" stroke-linecap="round"/>
<path fill-rule="evenodd" clip-rule="evenodd" d="M50.3006 12.3996L49.8006 11.6996C49.6006 11.3996 49.8006 11.0996 50.1006 11.0996H51.5006C51.8006 11.0996 52.0006 11.4996 51.8006 11.6996L51.1006 12.6996C50.4006 13.8996 48.5006 13.7996 48.0006 12.3996L47.9006 12.1996C47.8006 11.9996 47.9006 11.7996 48.1006 11.6996C48.3006 11.5996 48.5006 11.6996 48.6006 11.8996L48.7006 12.0996C49.1006 12.6996 49.9006 12.8996 50.3006 12.3996Z" fill="#868686"/>
<path d="M53.2008 12.0996L53.1008 12.2996C52.7008 13.2996 51.3008 13.3996 50.8008 12.4996" stroke="#868686" stroke-linecap="round"/>
<path d="M48.3992 10.4C48.7858 10.4 49.0992 10.0866 49.0992 9.7C49.0992 9.3134 48.7858 9 48.3992 9C48.0126 9 47.6992 9.3134 47.6992 9.7C47.6992 10.0866 48.0126 10.4 48.3992 10.4Z" fill="#868686"/>
<path d="M53.2 10.4C53.5866 10.4 53.9 10.0866 53.9 9.7C53.9 9.3134 53.5866 9 53.2 9C52.8134 9 52.5 9.3134 52.5 9.7C52.5 10.0866 52.8134 10.4 53.2 10.4Z" fill="#868686"/>
<path fill-rule="evenodd" clip-rule="evenodd" d="M10.4986 15.0208L7.08001 16.8993C6.67085 17.1242 6.16478 16.9597 5.94968 16.5321C5.86402 16.3618 5.83446 16.1667 5.86558 15.9771L6.51847 11.9983L3.75276 9.18055C3.42175 8.8433 3.41497 8.28944 3.73763 7.94345C3.86612 7.80568 4.03448 7.71602 4.21664 7.68836L8.03875 7.10786L9.74806 3.48786C9.95264 3.05459 10.4545 2.8767 10.869 3.09053C11.0341 3.17568 11.1677 3.31533 11.2492 3.48786L12.9585 7.10786L16.7806 7.68836C17.2381 7.75783 17.555 8.20176 17.4885 8.6799C17.4621 8.87029 17.3763 9.04626 17.2445 9.18055L14.4788 11.9983L15.1317 15.9771C15.2098 16.4533 14.9038 16.9056 14.4482 16.9872C14.2668 17.0198 14.0802 16.9889 13.9172 16.8993L10.4986 15.0208Z" stroke="#868686"/>
<path fill-rule="evenodd" clip-rule="evenodd" d="M10.4986 35.0208L7.08001 36.8993C6.67085 37.1242 6.16478 36.9597 5.94968 36.5321C5.86402 36.3618 5.83446 36.1667 5.86558 35.9771L6.51847 31.9983L3.75276 29.1806C3.42175 28.8433 3.41497 28.2894 3.73763 27.9435C3.86612 27.8057 4.03448 27.716 4.21664 27.6884L8.03875 27.1079L9.74806 23.4879C9.95264 23.0546 10.4545 22.8767 10.869 23.0905C11.0341 23.1757 11.1677 23.3153 11.2492 23.4879L12.9585 27.1079L16.7806 27.6884C17.2381 27.7578 17.555 28.2018 17.4885 28.6799C17.4621 28.8703 17.3763 29.0463 17.2445 29.1806L14.4788 31.9983L15.1317 35.9771C15.2098 36.4533 14.9038 36.9056 14.4482 36.9872C14.2668 37.0198 14.0802 36.9889 13.9172 36.8993L10.4986 35.0208Z" stroke="#3371B7"/>
<path fill-rule="evenodd" clip-rule="evenodd" d="M10.4986 55.0208L7.08001 56.8993C6.67085 57.1242 6.16478 56.9597 5.94968 56.5321C5.86402 56.3618 5.83446 56.1667 5.86558 55.9771L6.51847 51.9983L3.75276 49.1806C3.42175 48.8433 3.41497 48.2894 3.73763 47.9435C3.86612 47.8057 4.03448 47.716 4.21664 47.6884L8.03875 47.1079L9.74806 43.4879C9.95264 43.0546 10.4545 42.8767 10.869 43.0905C11.0341 43.1757 11.1677 43.3153 11.2492 43.4879L12.9585 47.1079L16.7806 47.6884C17.2381 47.7578 17.555 48.2018 17.4885 48.6799C17.4621 48.8703 17.3763 49.0463 17.2445 49.1806L14.4788 51.9983L15.1317 55.9771C15.2098 56.4533 14.9038 56.9056 14.4482 56.9872C14.2668 57.0198 14.0802 56.9889 13.9172 56.8993L10.4986 55.0208Z" stroke="#C0C0BF"/>
<path fill-rule="evenodd" clip-rule="evenodd" d="M10.4986 75.0208L7.08001 76.8993C6.67085 77.1242 6.16478 76.9597 5.94968 76.5321C5.86402 76.3618 5.83446 76.1667 5.86558 75.9771L6.51847 71.9983L3.75276 69.1806C3.42175 68.8433 3.41497 68.2894 3.73763 67.9435C3.86612 67.8057 4.03448 67.716 4.21664 67.6884L8.03875 67.1079L9.74806 63.4879C9.95264 63.0546 10.4545 62.8767 10.869 63.0905C11.0341 63.1757 11.1677 63.3153 11.2492 63.4879L12.9585 67.1079L16.7806 67.6884C17.2381 67.7578 17.555 68.2018 17.4885 68.6799C17.4621 68.8703 17.3763 69.0463 17.2445 69.1806L14.4788 71.9983L15.1317 75.9771C15.2098 76.4533 14.9038 76.9056 14.4482 76.9872C14.2668 77.0198 14.0802 76.9889 13.9172 76.8993L10.4986 75.0208Z" stroke="#6AA9DD"/>
</svg>
