<svg width="220" height="80" xmlns="http://www.w3.org/2000/svg" fill="none">

 <g>
  <title>Layer 1</title>
  <path id="svg_1" stroke-miterlimit="10" stroke-width="0.1" stroke="#3371B7" fill="#3371B7" d="m32.8496,29.4992c0.6,0 1.1,-0.5 1.1,-1.1c0,-0.6 -0.5,-1.2 -1.1,-1.2c-0.6,0 -1.2,0.5 -1.2,1.2c0,0.6 0.6,1.1 1.2,1.1zm0,-1.5c0.2,0 0.4,0.2 0.4,0.4c0,0.2 -0.2,0.4 -0.4,0.4c-0.2,0 -0.4,-0.2 -0.4,-0.4c0,-0.3 0.2,-0.4 0.4,-0.4z"/>
  <path id="svg_2" stroke-miterlimit="10" stroke-width="0.1" stroke="#3371B7" fill="#3371B7" d="m30.05,23c-3.8,0 -7,3.1 -7,7c0,3.8 3.1,7 7,7c3.9,0 7,-3.1 7,-7c0,-3.8 -3.2,-7 -7,-7zm0,13.2c-3.4,0 -6.2,-2.8 -6.2,-6.2c0,-3.4 2.8,-6.2 6.2,-6.2c3.4,0 6.2,2.8 6.2,6.2c0,3.4 -2.8,6.2 -6.2,6.2z"/>
  <path id="svg_3" stroke-miterlimit="10" stroke-width="0.1" stroke="#3371B7" fill="#3371B7" d="m34.6492,31.2c-0.1,-0.1 -0.2,-0.2 -0.3,-0.2l-8.6,0c-0.1,0 -0.2,0.1 -0.3,0.2c-0.1,0.1 -0.1,0.2 0,0.4c0.7,2 2.5,3.3 4.6,3.3c2.1,0 3.9,-1.3 4.6,-3.3c0.1,-0.1 0.1,-0.3 0,-0.4zm-4.6,2.9c-1.6,0 -3,-0.9 -3.7,-2.2l7.3,0c-0.6,1.3 -2,2.2 -3.6,2.2z"/>
  <path id="svg_4" stroke-miterlimit="10" stroke-width="0.1" stroke="#3371B7" fill="#3371B7" d="m27.2496,29.4992c0.6,0 1.2,-0.5 1.2,-1.1c0,-0.6 -0.5,-1.2 -1.2,-1.2c-0.6,0 -1.1,0.5 -1.1,1.2c0,0.6 0.5,1.1 1.1,1.1zm0,-1.5c0.2,0 0.4,0.2 0.4,0.4c0,0.2 -0.2,0.4 -0.4,0.4c-0.2,0 -0.4,-0.2 -0.4,-0.4c0,-0.3 0.2,-0.4 0.4,-0.4z"/>
  <path id="svg_5" stroke="#3371B7" d="m84.2008,33.4004l2.3,0c0.2,0 0.4,0.2 0.4,0.4l0,2.1c0,0.2 -0.2,0.4 -0.4,0.4l-2.3,0c-0.2,0 -0.4,-0.2 -0.4,-0.4l0,-2.1c0,-0.2 0.1,-0.4 0.4,-0.4z"/>
  <path id="svg_6" stroke="#3371B7" d="m93.6012,33.5l2.4,0c0.2,0 0.4,0.2 0.4,0.4l0,2c0,0.2 -0.2,0.4 -0.4,0.4l-2.4,0c-0.2,0 -0.4,-0.2 -0.4,-0.4l0,-2c0,-0.3 0.2,-0.4 0.4,-0.4z"/>
  <path id="svg_7" stroke="#3371B7" d="m83.8008,28.4004l12.6,0l0,5l-12.6,0l0,-5z"/>
  <path id="svg_8" stroke="#3371B7" d="m85.6008,23.5996l8.9,0c1,0 1.9,0.8 1.9,1.9l0,3.1l-12.6,0l0,-3.1c0,-1 0.8,-1.9 1.8,-1.9z"/>
  <path id="svg_9" fill="#3371B7" d="m86.3004,31.9004c0.4971,0 0.9,-0.4477 0.9,-1c0,-0.5523 -0.4029,-1 -0.9,-1c-0.497,0 -0.9,0.4477 -0.9,1c0,0.5523 0.403,1 0.9,1z"/>
  <path id="svg_10" fill="#3371B7" d="m93.9,31.9004c0.4971,0 0.9,-0.4477 0.9,-1c0,-0.5523 -0.4029,-1 -0.9,-1c-0.497,0 -0.9,0.4477 -0.9,1c0,0.5523 0.403,1 0.9,1z"/>
  <path id="svg_11" stroke="#3371B7" d="m116.4,30c0,3.6 -2.9,6.5 -6.4,6.5c-3.5,0 -6.4,-2.9 -6.4,-6.5c0,-3.6 2.9,-6.5 6.4,-6.5c3.5,0 6.4,2.9 6.4,6.5z"/>
  <path id="svg_12" stroke="#3371B7" d="m116.299,28.5992l0,0.1c-0.9,0.1 -2.9,0.1 -4.6,-1.1c-1.1,-0.8 -2,-1.7 -2.6,-2.5c-0.3,-0.4 -0.6,-0.8 -0.7,-1c-0.1,-0.1 -0.1,-0.1 -0.1,-0.2c0.5,-0.1 1.2,-0.2 2,-0.1c1.2,0 2.5,0.3 3.5,1.1c1,0.8 1.7,1.8 2.1,2.8c0.2,0.2 0.3,0.6 0.4,0.9z"/>
  <path id="svg_13" stroke="#3371B7" d="m104,32.2008l0,-0.1c0.9,-0.2 2.9,-0.4 4.7,0.6c1.1,0.7 1.9,1.5 2.4,2.3c0.4,0.5 0.6,1 0.7,1.3c-0.4,0.1 -1,0.2 -1.7,0.3c-1,0 -2.1,-0.1 -3.2,-0.8c-1.1,-0.7 -1.9,-1.6 -2.4,-2.5c-0.3,-0.5 -0.4,-0.8 -0.5,-1.1z"/>
  <path id="svg_14" stroke-linecap="round" stroke="#3371B7" d="m133.299,23.8996c-0.1,-0.1 -0.2,-0.1 -0.3,-0.1l-1.2,0l-0.3,0.6c-0.7,1.4 -2.6,1.4 -3.3,0.1l-0.4,-0.7l-1.3,0c-0.1,0 -0.2,0 -0.3,0.1l-2.6,2.9l1.4,2l0.8,-0.8l0.6,-0.6l0,0.9l0.1,8.2l6.8,0l0.1,-8.2l0,-0.9l0.6,0.6l0.8,0.8l1.4,-2l-2.9,-2.9zm0,0l0.3,-0.3"/>
  <path id="svg_15" stroke="#3371B7" d="m130,27.6992l2,0l0,0.9c0,0.4 -0.4,0.7 -1,0.7c-0.6,0 -1,-0.3 -1,-0.7l0,-0.9z"/>
  <path id="svg_16" stroke="#3371B7" d="m145.999,34.2996c0,1.2 -1,2.2 -2.2,2.2c-1.2,0 -2.2,-1 -2.2,-2.2c0,-1.2 1,-2.2 2.2,-2.2c1.2,0 2.2,1 2.2,2.2z"/>
  <path id="svg_17" stroke="#3371B7" d="m156.8,34.2996c0,1.2 -1,2.2 -2.2,2.2c-1.2,0 -2.2,-1 -2.2,-2.2c0,-1.2 1,-2.2 2.2,-2.2c1.2,0 2.2,1 2.2,2.2z"/>
  <path id="svg_18" stroke="#3371B7" d="m146,24.4004l0,9.9"/>
  <path id="svg_19" stroke="#3371B7" d="m156.9,24.4004l0,9.9"/>
  <path id="svg_20" stroke="#3371B7" d="m146,23.5l10.8,0l0,2.7l-10.8,0l0,-2.7z"/>
  <path id="svg_21" fill="#3371B7" d="m190.80001,23.0996c-0.3,0 -0.5,0 -0.8,0c-2.1,0 -4,1 -5.3,2.5l-0.1,0l-0.1,-0.1l-1,-1.2l-0.3,3.4l3.4,0.3l-1.1,-1.3l-0.1,-0.1l0.1,-0.1c1.1,-1.5 3,-2.3 5,-2.1c3.2,0.3 5.5,3.1 5.2,6.3c-0.3,3 -3.1,5.3 -6.1,5.1c-3.1,-0.2 -5.4,-2.9 -5.3,-6l-1.3,-0.1c-0.2,3.8 2.6,7.1 6.3,7.4c3.9,0.3 7.3,-2.6 7.6,-6.5c0.3,-3.8 -2.5,-7.1 -6.1,-7.5z"/>
  <path id="svg_22" fill="#3371B7" d="m190.20001,27.6c0,-0.3 -0.3,-0.6 -0.6,-0.6c-0.3,0 -0.6,0.3 -0.6,0.6l0,3.2c0,0.2 0.1,0.3 0.2,0.4c0.1,0.1 0.3,0.2 0.4,0.2l2.4,0c0.4,0 0.6,-0.3 0.6,-0.6c0,-0.4 -0.3,-0.6 -0.6,-0.6l-1.6,0l-0.2,0l0,-0.2l0,-2.4z"/>
  <path id="svg_23" stroke="#3371B7" d="m206.2,23.4004l7.7,0c1.5,0 2.7,1.2 2.7,2.7l0,7.7c0,1.5 -1.2,2.7 -2.7,2.7l-7.7,0c-1.5,0 -2.7,-1.2 -2.7,-2.7l0,-7.7c-0.1,-1.5 1.2,-2.7 2.7,-2.7z"/>
  <path id="svg_24" fill="#3371B7" d="m205.999,29.6012c0.386,0 0.7,-0.3134 0.7,-0.7c0,-0.3866 -0.314,-0.7 -0.7,-0.7c-0.387,0 -0.7,0.3134 -0.7,0.7c0,0.3866 0.313,0.7 0.7,0.7z"/>
  <path id="svg_25" fill="#3371B7" d="m213.999,27.4c0.386,0 0.7,-0.3134 0.7,-0.7c0,-0.3866 -0.314,-0.7 -0.7,-0.7c-0.387,0 -0.7,0.3134 -0.7,0.7c0,0.3866 0.313,0.7 0.7,0.7z"/>
  <path id="svg_26" stroke-linecap="round" stroke="#3371B7" d="m206,33.3003l0.4,-0.3c0.4,-0.3 1,-0.3 1.5,-0.1l1,0.4c0.5,0.2 1,0.2 1.5,-0.1l0.8,-0.5c0.4,-0.3 1,-0.3 1.5,-0.1l1.8,0.8"/>
  <path id="svg_27" stroke-miterlimit="10" stroke-width="0.25" stroke="#3371B7" fill="#3371B7" d="m176.125,24.3004c-0.2,-0.1 -0.4,-0.1 -0.5,0c0,0 -0.2,0.1 -0.9,0.2c-0.7,0 -2.4,-0.1 -3.8,-0.6c-0.8,-0.3 -1.7,-0.5 -2.5,-0.5c-0.2,0 -0.4,0 -0.5,0c-1.3,0 -2.5,0.3 -3.6,1c-0.2,0.1 -0.2,0.2 -0.2,0.4l0,11.6c0,0.3 0.1,0.5 0.3,0.5c0.6,0 0.5,-0.4 0.5,-0.6l0,-5.7c0.7,-0.3 3.2,-1.1 5.8,-0.1c1.6,0.6 3.5,0.7 4.3,0.7c0.8,0 1.3,-0.3 1.3,-0.3c0.2,-0.1 0.3,-0.2 0.3,-0.4l0,-5.7c-0.3,-0.2 -0.4,-0.4 -0.5,-0.5zm-0.4,5.9c-0.1,0 -0.7,0.1 -1,0.1c-0.7,0 -2.4,-0.1 -3.8,-0.6c-2.5,-1 -5,-0.5 -6.2,-0.1l0,-4.9c0.9,-0.5 2.2,-0.7 3.2,-0.7c0.1,0 0.3,0 0.4,0c0.7,0 1.5,0.2 2.2,0.4c1.6,0.6 3.5,0.7 4.3,0.7c0.2,0 0.8,0 1,-0.1l0,5.2l-0.1,0z"/>
  <path id="svg_28" stroke="#3371B7" d="m68.5,23.5l3.7,0c2.5,0 4.5,2 4.5,4.5c0,0.5 -0.4,0.9 -0.9,0.9l-10.9,0c-0.5,0 -0.9,-0.4 -0.9,-0.9c0,-2.5 2,-4.5 4.5,-4.5z"/>
  <path id="svg_29" stroke-linecap="round" stroke="#3371B7" d="m63.9006,28.8008c-0.2,0.1 -0.5,1.2 0,1.5c1.4,1 8.5,0.8 11.3,0.6c0.8,-0.1 1.6,-0.4 1.7,-1.2c0,-0.3 -0.1,-0.6 -0.6,-0.9"/>
  <path id="svg_30" stroke-linecap="round" stroke="#3371B7" d="m63.9011,30.6004l-0.2,0.4c-0.2,0.5 0.2,1 0.7,0.9c0.3,-0.1 0.5,0 0.7,0.3l0.1,0.2c0.3,0.5 1,0.6 1.5,0.2c0.3,-0.2 0.7,-0.3 1,-0.2l0.8,0.3c0.4,0.2 0.8,0.1 1.2,0l0.5,-0.2c0.4,-0.2 0.9,-0.2 1.3,0l0.5,0.2c0.4,0.2 0.8,0.2 1.2,0l0.2,-0.1c0.3,-0.2 0.8,-0.2 1.1,0.1l0.2,0.2c0.3,0.3 0.8,0.2 1,-0.2l0.1,-0.2c0.1,-0.2 0,-0.3 0.2,-0.3c0.5,0 1.2,-0.3 1.1,-0.7l-0.4,-1.1"/>
  <path id="svg_31" stroke-linecap="round" stroke="#3371B7" d="m63.9007,32.1992c-0.1,0.2 -0.3,0.8 0,1.1c0.3,0.4 3,1.1 6.4,1.1c2.2,0 4.6,-0.3 6,-0.6c0.5,-0.1 0.9,-0.5 0.8,-0.9c0,-0.2 -0.2,-0.5 -0.4,-0.7"/>
  <path id="svg_32" stroke-linecap="round" stroke="#3371B7" d="m63.9004,33.3008c0,0.5 0.6,2.3 1.3,2.7c1.8,0.8 5.7,0.7 8.1,0.5c1.3,-0.1 2.5,-0.7 3.2,-1.8c0.3,-0.5 0.5,-1 0.5,-1.4"/>
  <path id="svg_33" fill="#3371B7" d="m72.0012,26.8996c0.1657,0 0.3,-0.1791 0.3,-0.4c0,-0.2209 -0.1343,-0.4 -0.3,-0.4c-0.1657,0 -0.3,0.1791 -0.3,0.4c0,0.2209 0.1343,0.4 0.3,0.4z"/>
  <path id="svg_34" fill="#3371B7" d="m73.3997,25.3996c0.1657,0 0.3,-0.1791 0.3,-0.4c0,-0.2209 -0.1343,-0.4 -0.3,-0.4c-0.1657,0 -0.3,0.1791 -0.3,0.4c0,0.2209 0.1343,0.4 0.3,0.4z"/>
  <path id="svg_35" fill="#3371B7" d="m73.3997,27.6008c0.1657,0 0.3,-0.1791 0.3,-0.4c0,-0.2209 -0.1343,-0.4 -0.3,-0.4c-0.1657,0 -0.3,0.1791 -0.3,0.4c0,0.2209 0.1343,0.4 0.3,0.4z"/>
  <path id="svg_36" fill="#3371B7" d="m74.7004,26.8996c0.1657,0 0.3,-0.1791 0.3,-0.4c0,-0.2209 -0.1343,-0.4 -0.3,-0.4c-0.1657,0 -0.3,0.1791 -0.3,0.4c0,0.2209 0.1343,0.4 0.3,0.4z"/>
  <path id="svg_37" fill="#3371B7" d="m71.3,25.3996c0.1657,0 0.3,-0.1791 0.3,-0.4c0,-0.2209 -0.1343,-0.4 -0.3,-0.4c-0.1657,0 -0.3,0.1791 -0.3,0.4c0,0.2209 0.1343,0.4 0.3,0.4z"/>
  <path id="svg_38" stroke="#3371B7" d="m44.5,32.0004l0,-7.6c0.1,0.1 0.8,0.9 2.8,3.1c2.5,-1.6 5.6,-0.7 6.9,0l2.4,-3.1l0,7.1c0,1.2 -0.1,2.5 -0.9,3.4c-1,1.2 -2.7,2.5 -5.3,2.5c-2.9,0 -4.5,-1.5 -5.3,-2.9c-0.6,-0.6 -0.6,-1.5 -0.6,-2.5z"/>
  <path id="svg_39" stroke-linecap="round" stroke="#3371B7" d="m41.5,31l5.4,1.2"/>
  <path id="svg_40" stroke-linecap="round" stroke="#3371B7" d="m41.5,35.1004l5.4,-1.2"/>
  <path id="svg_41" stroke-linecap="round" stroke="#3371B7" d="m59.0992,31l-5.4,1.2"/>
  <path id="svg_42" stroke-linecap="round" stroke="#3371B7" d="m59.0992,35.1004l-5.4,-1.2"/>
  <path id="svg_43" fill="#3371B7" d="m49.8006,33.3996l-0.5,-0.7c-0.2,-0.3 0,-0.6 0.3,-0.6l1.4,0c0.3,0 0.5,0.4 0.3,0.6l-0.7,1c-0.7,1.2 -2.6,1.1 -3.1,-0.3l-0.1,-0.2c-0.1,-0.2 0,-0.4 0.2,-0.5c0.2,-0.1 0.4,0 0.5,0.2l0.1,0.2c0.4,0.7 1.2,0.8 1.6,0.3z" clip-rule="evenodd" fill-rule="evenodd"/>
  <path id="svg_44" stroke-linecap="round" stroke="#3371B7" d="m52.7008,33.0996l-0.1,0.2c-0.4,1 -1.8,1.1 -2.3,0.2"/>
  <path id="svg_45" fill="#3371B7" d="m47.8992,31.4c0.3866,0 0.7,-0.3134 0.7,-0.7c0,-0.3866 -0.3134,-0.7 -0.7,-0.7c-0.3866,0 -0.7,0.3134 -0.7,0.7c0,0.3866 0.3134,0.7 0.7,0.7z"/>
  <path id="svg_46" fill="#3371B7" d="m52.7,31.4c0.3866,0 0.7,-0.3134 0.7,-0.7c0,-0.3866 -0.3134,-0.7 -0.7,-0.7c-0.3866,0 -0.7,0.3134 -0.7,0.7c0,0.3866 0.3134,0.7 0.7,0.7z"/>
  <path id="svg_47" stroke-miterlimit="10" stroke-width="0.1" stroke="#C0C0BF" fill="#C0C0BF" d="m32.8496,49.4992c0.6,0 1.1,-0.5 1.1,-1.1c0,-0.6 -0.5,-1.2 -1.1,-1.2c-0.6,0 -1.2,0.5 -1.2,1.2c0,0.6 0.6,1.1 1.2,1.1zm0,-1.5c0.2,0 0.4,0.2 0.4,0.4c0,0.2 -0.2,0.4 -0.4,0.4c-0.2,0 -0.4,-0.2 -0.4,-0.4c0,-0.3 0.2,-0.4 0.4,-0.4z"/>
  <path id="svg_48" stroke-miterlimit="10" stroke-width="0.1" stroke="#C0C0BF" fill="#C0C0BF" d="m34.6492,51.2c-0.1,-0.1 -0.2,-0.2 -0.3,-0.2l-8.6,0c-0.1,0 -0.2,0.1 -0.3,0.2c-0.1,0.1 -0.1,0.2 0,0.4c0.7,2 2.5,3.3 4.6,3.3c2.1,0 3.9,-1.3 4.6,-3.3c0.1,-0.1 0.1,-0.3 0,-0.4zm-4.6,2.9c-1.6,0 -3,-0.9 -3.7,-2.2l7.3,0c-0.6,1.3 -2,2.2 -3.6,2.2z"/>
  <path id="svg_49" stroke-miterlimit="10" stroke-width="0.1" stroke="#C0C0BF" fill="#C0C0BF" d="m27.2496,49.4992c0.6,0 1.2,-0.5 1.2,-1.1c0,-0.6 -0.5,-1.2 -1.2,-1.2c-0.6,0 -1.1,0.5 -1.1,1.2c0,0.6 0.5,1.1 1.1,1.1zm0,-1.5c0.2,0 0.4,0.2 0.4,0.4c0,0.2 -0.2,0.4 -0.4,0.4c-0.2,0 -0.4,-0.2 -0.4,-0.4c0,-0.3 0.2,-0.4 0.4,-0.4z"/>
  <path id="svg_50" stroke-miterlimit="10" stroke-width="0.1" stroke="#C0C0BF" fill="#C0C0BF" d="m30.05,43c-3.8,0 -7,3.1 -7,7c0,3.8 3.1,7 7,7c3.9,0 7,-3.1 7,-7c0,-3.8 -3.2,-7 -7,-7zm0,13.2c-3.4,0 -6.2,-2.8 -6.2,-6.2c0,-3.4 2.8,-6.2 6.2,-6.2c3.4,0 6.2,2.8 6.2,6.2c0,3.4 -2.8,6.2 -6.2,6.2z"/>
  <path id="svg_51" stroke="#C0C0BF" d="m84.2008,53.4004l2.3,0c0.2,0 0.4,0.2 0.4,0.4l0,2.1c0,0.2 -0.2,0.4 -0.4,0.4l-2.3,0c-0.2,0 -0.4,-0.2 -0.4,-0.4l0,-2.1c0,-0.2 0.1,-0.4 0.4,-0.4z"/>
  <path id="svg_52" stroke="#C0C0BF" d="m93.6012,53.5l2.4,0c0.2,0 0.4,0.2 0.4,0.4l0,2c0,0.2 -0.2,0.4 -0.4,0.4l-2.4,0c-0.2,0 -0.4,-0.2 -0.4,-0.4l0,-2c0,-0.3 0.2,-0.4 0.4,-0.4z"/>
  <path id="svg_53" stroke="#C0C0BF" d="m83.8008,48.4004l12.6,0l0,5l-12.6,0l0,-5z"/>
  <path id="svg_54" stroke="#C0C0BF" d="m85.6008,43.5996l8.9,0c1,0 1.9,0.8 1.9,1.9l0,3.1l-12.6,0l0,-3.1c0,-1 0.8,-1.9 1.8,-1.9z"/>
  <path id="svg_55" fill="#C0C0BF" d="m86.3004,51.9004c0.4971,0 0.9,-0.4477 0.9,-1c0,-0.5523 -0.4029,-1 -0.9,-1c-0.497,0 -0.9,0.4477 -0.9,1c0,0.5523 0.403,1 0.9,1z"/>
  <path id="svg_56" fill="#C0C0BF" d="m93.9,51.9004c0.4971,0 0.9,-0.4477 0.9,-1c0,-0.5523 -0.4029,-1 -0.9,-1c-0.497,0 -0.9,0.4477 -0.9,1c0,0.5523 0.403,1 0.9,1z"/>
  <path id="svg_57" stroke="#C0C0BF" d="m116.4,50c0,3.6 -2.9,6.5 -6.4,6.5c-3.5,0 -6.4,-2.9 -6.4,-6.5c0,-3.6 2.9,-6.5 6.4,-6.5c3.5,0 6.4,2.9 6.4,6.5z"/>
  <path id="svg_58" stroke="#C0C0BF" d="m116.299,48.5996l0,0.1c-0.9,0.1 -2.9,0.1 -4.6,-1.2c-1.1,-0.8 -2,-1.7 -2.6,-2.5c-0.3,-0.4 -0.6,-0.8 -0.7,-1c-0.1,-0.1 -0.1,-0.2 -0.1,-0.2c0.5,-0.1 1.2,-0.2 2,-0.2c1.2,0 2.5,0.3 3.5,1.1c1,0.8 1.7,1.8 2.1,2.8c0.2,0.4 0.3,0.8 0.4,1.1z"/>
  <path id="svg_59" stroke="#C0C0BF" d="m104,52.2008l0,-0.1c0.9,-0.2 2.9,-0.4 4.7,0.6c1.1,0.7 1.9,1.5 2.4,2.3c0.4,0.5 0.6,1 0.7,1.3c-0.4,0.1 -1,0.2 -1.7,0.3c-1,0 -2.1,-0.1 -3.2,-0.8c-1.1,-0.7 -1.9,-1.6 -2.4,-2.5c-0.3,-0.5 -0.4,-0.8 -0.5,-1.1z"/>
  <path id="svg_60" stroke-linecap="round" stroke="#C0C0BF" d="m133.299,43.8996c-0.1,-0.1 -0.2,-0.1 -0.3,-0.1l-1.2,0l-0.3,0.6c-0.7,1.4 -2.6,1.4 -3.3,0.1l-0.4,-0.7l-1.3,0c-0.1,0 -0.2,0 -0.3,0.1l-2.6,2.9l1.4,2l0.8,-0.8l0.6,-0.7l0,0.9l0.1,8.2l6.8,0l0.1,-8.2l0,-0.9l0.6,0.7l0.8,0.8l1.4,-2l-2.9,-2.9zm0,0l0.3,-0.3"/>
  <path id="svg_61" stroke="#C0C0BF" d="m130,47.6992l2,0l0,0.9c0,0.4 -0.4,0.7 -1,0.7c-0.6,0 -1,-0.3 -1,-0.7l0,-0.9z"/>
  <path id="svg_62" stroke="#C0C0BF" d="m145.999,54.2996c0,1.2 -1,2.2 -2.2,2.2c-1.2,0 -2.2,-1 -2.2,-2.2c0,-1.2 1,-2.2 2.2,-2.2c1.2,0 2.2,1 2.2,2.2z"/>
  <path id="svg_63" stroke="#C0C0BF" d="m156.8,54.2996c0,1.2 -1,2.2 -2.2,2.2c-1.2,0 -2.2,-1 -2.2,-2.2c0,-1.2 1,-2.2 2.2,-2.2c1.2,0 2.2,1 2.2,2.2z"/>
  <path id="svg_64" stroke="#C0C0BF" d="m146,44.4004l0,9.9"/>
  <path id="svg_65" stroke="#C0C0BF" d="m156.9,44.4004l0,9.9"/>
  <path id="svg_66" stroke="#C0C0BF" d="m146,43.5l10.8,0l0,2.7l-10.8,0l0,-2.7z"/>
  <path id="svg_67" fill="#C0C0BF" d="m190.80001,43.0996c-0.3,0 -0.5,0 -0.8,0c-2.1,0 -4,1 -5.3,2.5l-0.1,0l-0.1,-0.1l-1,-1.2l-0.3,3.4l3.4,0.3l-1.1,-1.3l-0.1,-0.1l0.1,-0.1c1.1,-1.5 3,-2.3 5,-2.1c3.2,0.3 5.5,3.1 5.2,6.3c-0.3,3 -3.1,5.3 -6.1,5.1c-3.1,-0.2 -5.4,-2.9 -5.3,-6l-1.3,-0.1c-0.2,3.8 2.6,7.1 6.3,7.4c3.9,0.3 7.3,-2.6 7.6,-6.5c0.3,-3.8 -2.5,-7.1 -6.1,-7.5z"/>
  <path id="svg_68" fill="#C0C0BF" d="m190.30001,47.3988c0,-0.3 -0.3,-0.6 -0.6,-0.6c-0.3,0 -0.6,0.3 -0.6,0.6l0,3.2c0,0.2 0.1,0.3 0.2,0.4c0.1,0.1 0.3,0.2 0.4,0.2l2.4,0c0.4,0 0.6,-0.3 0.6,-0.6c0,-0.3 -0.3,-0.6 -0.6,-0.6l-1.6,0l-0.2,0l0,-0.2l0,-2.4z"/>
  <path id="svg_69" stroke="#C0C0BF" d="m206.2,43.4004l7.7,0c1.5,0 2.7,1.2 2.7,2.7l0,7.7c0,1.5 -1.2,2.7 -2.7,2.7l-7.7,0c-1.5,0 -2.7,-1.2 -2.7,-2.7l0,-7.7c-0.1,-1.4 1.2,-2.7 2.7,-2.7z"/>
  <path id="svg_70" fill="#C0C0BF" d="m205.999,49.6012c0.386,0 0.7,-0.3134 0.7,-0.7c0,-0.3866 -0.314,-0.7 -0.7,-0.7c-0.387,0 -0.7,0.3134 -0.7,0.7c0,0.3866 0.313,0.7 0.7,0.7z"/>
  <path id="svg_71" fill="#C0C0BF" d="m213.999,47.4c0.386,0 0.7,-0.3134 0.7,-0.7c0,-0.3866 -0.314,-0.7 -0.7,-0.7c-0.387,0 -0.7,0.3134 -0.7,0.7c0,0.3866 0.313,0.7 0.7,0.7z"/>
  <path id="svg_72" stroke-linecap="round" stroke="#C0C0BF" d="m206,53.3003l0.4,-0.3c0.4,-0.3 1,-0.3 1.5,-0.1l1,0.4c0.5,0.2 1,0.2 1.5,-0.1l0.8,-0.5c0.4,-0.3 1,-0.3 1.5,-0.1l1.8,0.8"/>
  <path id="svg_73" stroke-miterlimit="10" stroke-width="0.25" stroke="#C0C0BF" fill="#C0C0BF" d="m176.125,44.3004c-0.2,-0.1 -0.4,-0.1 -0.5,0c0,0 -0.2,0.1 -0.9,0.2c-0.7,0 -2.4,-0.1 -3.8,-0.6c-0.8,-0.3 -1.7,-0.5 -2.5,-0.5c-0.2,0 -0.4,0 -0.5,0c-1.3,0 -2.5,0.3 -3.6,1c-0.2,0.1 -0.2,0.2 -0.2,0.4l0,11.6c0,0.3 0.1,0.5 0.3,0.5c0.6,0 0.5,-0.4 0.5,-0.6l0,-5.7c0.7,-0.3 3.2,-1.1 5.8,-0.1c1.6,0.6 3.5,0.7 4.3,0.7c0.8,0 1.3,-0.3 1.3,-0.3c0.2,-0.1 0.3,-0.2 0.3,-0.4l0,-5.7c-0.3,-0.2 -0.4,-0.4 -0.5,-0.5zm-0.4,5.9c-0.1,0 -0.7,0.1 -1,0.1c-0.7,0 -2.4,-0.1 -3.8,-0.6c-2.5,-1 -5,-0.5 -6.2,-0.1l0,-4.9c0.9,-0.5 2.2,-0.7 3.2,-0.7c0.1,0 0.3,0 0.4,0c0.7,0 1.5,0.2 2.2,0.4c1.6,0.6 3.5,0.7 4.3,0.7c0.2,0 0.8,0 1,-0.1l0,5.2l-0.1,0z"/>
  <path id="svg_74" stroke="#C0C0BF" d="m68.5,43.5l3.7,0c2.5,0 4.5,2 4.5,4.5c0,0.5 -0.4,0.9 -0.9,0.9l-10.9,0c-0.5,0 -0.9,-0.4 -0.9,-0.9c0,-2.5 2,-4.5 4.5,-4.5z"/>
  <path id="svg_75" stroke-linecap="round" stroke="#C0C0BF" d="m63.9006,48.8008c-0.2,0.1 -0.5,1.2 0,1.5c1.4,1 8.5,0.8 11.3,0.6c0.8,-0.1 1.6,-0.4 1.7,-1.2c0,-0.3 -0.1,-0.6 -0.6,-0.9"/>
  <path id="svg_76" stroke-linecap="round" stroke="#C0C0BF" d="m63.9011,50.6004l-0.2,0.4c-0.2,0.5 0.2,1 0.7,0.9c0.3,-0.1 0.5,0 0.7,0.3l0.1,0.2c0.3,0.5 1,0.6 1.5,0.2c0.3,-0.2 0.7,-0.3 1,-0.2l0.8,0.3c0.4,0.2 0.8,0.1 1.2,0l0.5,-0.2c0.4,-0.2 0.9,-0.2 1.3,0l0.5,0.2c0.4,0.2 0.8,0.2 1.2,0l0.2,-0.1c0.3,-0.2 0.8,-0.2 1.1,0.1l0.2,0.2c0.3,0.3 0.8,0.2 1,-0.2l0.1,-0.2c0.1,-0.2 0,-0.3 0.2,-0.3c0.5,0 1.2,-0.3 1.1,-0.7l-0.4,-1.1"/>
  <path id="svg_77" stroke-linecap="round" stroke="#C0C0BF" d="m63.9007,52.1992c-0.1,0.2 -0.3,0.8 0,1.1c0.3,0.4 3,1.1 6.4,1.1c2.2,0 4.6,-0.3 6,-0.6c0.5,-0.1 0.9,-0.5 0.8,-0.9c0,-0.2 -0.2,-0.5 -0.4,-0.7"/>
  <path id="svg_78" stroke-linecap="round" stroke="#C0C0BF" d="m63.9004,53.3008c0,0.5 0.6,2.3 1.3,2.7c1.8,0.8 5.7,0.7 8.1,0.5c1.3,-0.1 2.5,-0.7 3.2,-1.8c0.3,-0.5 0.5,-1 0.5,-1.4"/>
  <path id="svg_79" fill="#C0C0BF" d="m72.0012,46.8996c0.1657,0 0.3,-0.1791 0.3,-0.4c0,-0.2209 -0.1343,-0.4 -0.3,-0.4c-0.1657,0 -0.3,0.1791 -0.3,0.4c0,0.2209 0.1343,0.4 0.3,0.4z"/>
  <path id="svg_80" fill="#C0C0BF" d="m73.3997,45.3996c0.1657,0 0.3,-0.1791 0.3,-0.4c0,-0.2209 -0.1343,-0.4 -0.3,-0.4c-0.1657,0 -0.3,0.1791 -0.3,0.4c0,0.2209 0.1343,0.4 0.3,0.4z"/>
  <path id="svg_81" fill="#C0C0BF" d="m73.3997,47.6008c0.1657,0 0.3,-0.1791 0.3,-0.4c0,-0.2209 -0.1343,-0.4 -0.3,-0.4c-0.1657,0 -0.3,0.1791 -0.3,0.4c0,0.2209 0.1343,0.4 0.3,0.4z"/>
  <path id="svg_82" fill="#C0C0BF" d="m74.7004,46.8996c0.1657,0 0.3,-0.1791 0.3,-0.4c0,-0.2209 -0.1343,-0.4 -0.3,-0.4c-0.1657,0 -0.3,0.1791 -0.3,0.4c0,0.2209 0.1343,0.4 0.3,0.4z"/>
  <path id="svg_83" fill="#C0C0BF" d="m71.3,45.3996c0.1657,0 0.3,-0.1791 0.3,-0.4c0,-0.2209 -0.1343,-0.4 -0.3,-0.4c-0.1657,0 -0.3,0.1791 -0.3,0.4c0,0.2209 0.1343,0.4 0.3,0.4z"/>
  <path id="svg_84" stroke="#C0C0BF" d="m44.5,52.0004l0,-7.6c0.1,0.1 0.8,0.9 2.8,3.1c2.5,-1.7 5.6,-0.7 6.9,0l2.4,-3.1l0,7.1c0,1.2 -0.1,2.5 -0.9,3.4c-1,1.2 -2.7,2.5 -5.3,2.5c-2.9,0 -4.5,-1.5 -5.3,-2.9c-0.6,-0.6 -0.6,-1.5 -0.6,-2.5z"/>
  <path id="svg_85" stroke-linecap="round" stroke="#C0C0BF" d="m41.5,51l5.4,1.2"/>
  <path id="svg_86" stroke-linecap="round" stroke="#C0C0BF" d="m41.5,55.1004l5.4,-1.2"/>
  <path id="svg_87" stroke-linecap="round" stroke="#C0C0BF" d="m59.0992,51l-5.4,1.2"/>
  <path id="svg_88" stroke-linecap="round" stroke="#C0C0BF" d="m59.0992,55.1004l-5.4,-1.2"/>
  <path id="svg_89" fill="#C0C0BF" d="m49.8006,53.3996l-0.5,-0.7c-0.2,-0.3 0,-0.6 0.3,-0.6l1.4,0c0.3,0 0.5,0.4 0.3,0.6l-0.7,1c-0.7,1.2 -2.6,1.1 -3.1,-0.3l-0.1,-0.2c-0.1,-0.2 0,-0.4 0.2,-0.5c0.2,-0.1 0.4,0 0.5,0.2l0.1,0.2c0.4,0.7 1.2,0.8 1.6,0.3z" clip-rule="evenodd" fill-rule="evenodd"/>
  <path id="svg_90" stroke-linecap="round" stroke="#C0C0BF" d="m52.7008,53.0996l-0.1,0.2c-0.4,1 -1.8,1.1 -2.3,0.2"/>
  <path id="svg_91" fill="#C0C0BF" d="m47.8992,51.4c0.3866,0 0.7,-0.3134 0.7,-0.7c0,-0.3866 -0.3134,-0.7 -0.7,-0.7c-0.3866,0 -0.7,0.3134 -0.7,0.7c0,0.3866 0.3134,0.7 0.7,0.7z"/>
  <path id="svg_92" fill="#C0C0BF" d="m52.7,51.4c0.3866,0 0.7,-0.3134 0.7,-0.7c0,-0.3866 -0.3134,-0.7 -0.7,-0.7c-0.3866,0 -0.7,0.3134 -0.7,0.7c0,0.3866 0.3134,0.7 0.7,0.7z"/>
  <path id="svg_93" stroke-miterlimit="10" stroke-width="0.1" stroke="#6AA9DD" fill="#6AA9DD" d="m34.6492,71.2c-0.1,-0.1 -0.2,-0.2 -0.3,-0.2l-8.6,0c-0.1,0 -0.2,0.1 -0.3,0.2c-0.1,0.1 -0.1,0.2 0,0.4c0.7,2 2.5,3.3 4.6,3.3c2.1,0 3.9,-1.3 4.6,-3.3c0.1,-0.1 0.1,-0.3 0,-0.4zm-4.6,2.9c-1.6,0 -3,-0.9 -3.7,-2.2l7.3,0c-0.6,1.3 -2,2.2 -3.6,2.2z"/>
  <path id="svg_94" stroke-miterlimit="10" stroke-width="0.1" stroke="#6AA9DD" fill="#6AA9DD" d="m32.8496,69.4992c0.6,0 1.1,-0.5 1.1,-1.1c0,-0.6 -0.5,-1.2 -1.1,-1.2c-0.6,0 -1.2,0.5 -1.2,1.2c0,0.6 0.6,1.1 1.2,1.1zm0,-1.5c0.2,0 0.4,0.2 0.4,0.4c0,0.2 -0.2,0.4 -0.4,0.4c-0.2,0 -0.4,-0.2 -0.4,-0.4c0,-0.3 0.2,-0.4 0.4,-0.4z"/>
  <path id="svg_95" stroke-miterlimit="10" stroke-width="0.1" stroke="#6AA9DD" fill="#6AA9DD" d="m27.2496,69.4992c0.6,0 1.2,-0.5 1.2,-1.1c0,-0.6 -0.5,-1.2 -1.2,-1.2c-0.6,0 -1.1,0.5 -1.1,1.2c0,0.6 0.5,1.1 1.1,1.1zm0,-1.5c0.2,0 0.4,0.2 0.4,0.4c0,0.2 -0.2,0.4 -0.4,0.4c-0.2,0 -0.4,-0.2 -0.4,-0.4c0,-0.3 0.2,-0.4 0.4,-0.4z"/>
  <path id="svg_96" stroke-miterlimit="10" stroke-width="0.1" stroke="#6AA9DD" fill="#6AA9DD" d="m30.05,63c-3.8,0 -7,3.1 -7,7c0,3.8 3.1,7 7,7c3.9,0 7,-3.1 7,-7c0,-3.8 -3.2,-7 -7,-7zm0,13.2c-3.4,0 -6.2,-2.8 -6.2,-6.2c0,-3.4 2.8,-6.2 6.2,-6.2c3.4,0 6.2,2.8 6.2,6.2c0,3.4 -2.8,6.2 -6.2,6.2z"/>
  <path id="svg_97" stroke="#6AA9DD" d="m84.2008,73.4004l2.3,0c0.2,0 0.4,0.2 0.4,0.4l0,2.1c0,0.2 -0.2,0.4 -0.4,0.4l-2.3,0c-0.2,0 -0.4,-0.2 -0.4,-0.4l0,-2.1c0,-0.2 0.1,-0.4 0.4,-0.4z"/>
  <path id="svg_98" stroke="#6AA9DD" d="m93.6012,73.5l2.4,0c0.2,0 0.4,0.2 0.4,0.4l0,2.1c0,0.2 -0.2,0.4 -0.4,0.4l-2.4,0c-0.2,0 -0.4,-0.2 -0.4,-0.4l0,-2.1c0,-0.3 0.2,-0.4 0.4,-0.4z"/>
  <path id="svg_99" stroke="#6AA9DD" d="m83.8008,68.4004l12.6,0l0,5l-12.6,0l0,-5z"/>
  <path id="svg_100" stroke="#6AA9DD" d="m85.6008,63.5996l8.9,0c1,0 1.9,0.8 1.9,1.9l0,3.1l-12.6,0l0,-3.1c0,-1 0.8,-1.9 1.8,-1.9z"/>
  <path id="svg_101" fill="#6AA9DD" d="m86.3004,71.8c0.4971,0 0.9,-0.4029 0.9,-0.9c0,-0.4971 -0.4029,-0.9 -0.9,-0.9c-0.497,0 -0.9,0.4029 -0.9,0.9c0,0.4971 0.403,0.9 0.9,0.9z"/>
  <path id="svg_102" fill="#6AA9DD" d="m93.9,71.8c0.4971,0 0.9,-0.4029 0.9,-0.9c0,-0.4971 -0.4029,-0.9 -0.9,-0.9c-0.497,0 -0.9,0.4029 -0.9,0.9c0,0.4971 0.403,0.9 0.9,0.9z"/>
  <path id="svg_103" stroke="#6AA9DD" d="m116.4,70c0,3.6 -2.9,6.5 -6.4,6.5c-3.5,0 -6.4,-2.9 -6.4,-6.5c0,-3.6 2.9,-6.5 6.4,-6.5c3.5,0 6.4,2.9 6.4,6.5z"/>
  <path id="svg_104" stroke="#6AA9DD" d="m116.299,68.6l0,0.1c-0.9,0.1 -2.9,0.1 -4.6,-1.2c-1.1,-0.8 -2,-1.7 -2.6,-2.5c-0.3,-0.4 -0.6,-0.8 -0.7,-1.1c-0.1,-0.1 -0.1,-0.2 -0.1,-0.2c0.5,-0.1 1.2,-0.2 2,-0.2c1.2,0 2.5,0.3 3.5,1.1c1,0.8 1.7,1.8 2.1,2.8c0.2,0.5 0.3,0.9 0.4,1.2z"/>
  <path id="svg_105" stroke="#6AA9DD" d="m104,72.2008l0,-0.1c0.9,-0.2 2.9,-0.4 4.7,0.6c1.1,0.7 1.9,1.5 2.4,2.3c0.4,0.5 0.6,1 0.7,1.3c-0.4,0.1 -1,0.2 -1.7,0.3c-1,0 -2.1,-0.1 -3.2,-0.8c-1.1,-0.7 -1.9,-1.6 -2.4,-2.5c-0.3,-0.5 -0.4,-0.9 -0.5,-1.1z"/>
  <path id="svg_106" stroke-linecap="round" stroke="#6AA9DD" d="m133.299,63.8996c-0.1,-0.1 -0.2,-0.1 -0.3,-0.1l-1.2,0l-0.3,0.6c-0.7,1.4 -2.6,1.4 -3.3,0.1l-0.4,-0.7l-1.3,0c-0.1,0 -0.2,0 -0.3,0.1l-2.6,2.9l1.4,2l0.8,-0.8l0.6,-0.7l0,0.9l0.1,8.2l6.8,0l0.1,-8.2l0,-0.9l0.6,0.7l0.8,0.8l1.4,-2l-2.9,-2.9zm0,0l0.3,-0.3"/>
  <path id="svg_107" stroke="#6AA9DD" d="m130,67.6992l2,0l0,0.9c0,0.4 -0.4,0.7 -1,0.7c-0.6,0 -1,-0.3 -1,-0.7l0,-0.9z"/>
  <path id="svg_108" stroke="#6AA9DD" d="m145.999,74.2996c0,1.2 -1,2.2 -2.2,2.2c-1.2,0 -2.2,-1 -2.2,-2.2c0,-1.2 1,-2.2 2.2,-2.2c1.2,0 2.2,1 2.2,2.2z"/>
  <path id="svg_109" stroke="#6AA9DD" d="m156.8,74.2996c0,1.2 -1,2.2 -2.2,2.2c-1.2,0 -2.2,-1 -2.2,-2.2c0,-1.2 1,-2.2 2.2,-2.2c1.2,0 2.2,1 2.2,2.2z"/>
  <path id="svg_110" stroke="#6AA9DD" d="m146,64.4004l0,9.9"/>
  <path id="svg_111" stroke="#6AA9DD" d="m156.9,64.4004l0,9.9"/>
  <path id="svg_112" stroke="#6AA9DD" d="m146,63.5l10.8,0l0,2.7l-10.8,0l0,-2.7z"/>
  <path id="svg_113" fill="#6AA9DD" d="m190.80001,63.0996c-0.3,0 -0.5,0 -0.8,0c-2.1,0 -4,1 -5.3,2.5l-0.1,0l-0.1,-0.1l-1,-1.2l-0.3,3.4l3.4,0.3l-1.1,-1.3l-0.1,-0.1l0.1,-0.1c1.1,-1.4 3,-2.3 5,-2.1c3.2,0.3 5.5,3.1 5.2,6.3c-0.3,3 -3.1,5.3 -6.1,5.1c-3.1,-0.2 -5.4,-2.9 -5.3,-6l-1.3,-0.1c-0.2,3.8 2.6,7.1 6.3,7.4c3.9,0.3 7.3,-2.6 7.6,-6.5c0.3,-3.8 -2.5,-7.1 -6.1,-7.5z"/>
  <path id="svg_114" fill="#6AA9DD" d="m190.30001,67.3988c0,-0.3 -0.3,-0.6 -0.6,-0.6c-0.3,0 -0.6,0.3 -0.6,0.6l0,3.2c0,0.2 0.1,0.3 0.2,0.4c0.1,0.1 0.3,0.2 0.4,0.2l2.4,0c0.4,0 0.6,-0.3 0.6,-0.6c0,-0.3 -0.3,-0.6 -0.7,-0.6l-1.6,0l-0.2,0l0,-0.2l0.1,-2.4z"/>
  <path id="svg_115" stroke="#6AA9DD" d="m206.2,63.4004l7.7,0c1.5,0 2.7,1.2 2.7,2.7l0,7.7c0,1.5 -1.2,2.7 -2.7,2.7l-7.7,0c-1.5,0 -2.7,-1.2 -2.7,-2.7l0,-7.7c-0.1,-1.4 1.2,-2.7 2.7,-2.7z"/>
  <path id="svg_116" fill="#6AA9DD" d="m205.999,69.6012c0.386,0 0.7,-0.3134 0.7,-0.7c0,-0.3866 -0.314,-0.7 -0.7,-0.7c-0.387,0 -0.7,0.3134 -0.7,0.7c0,0.3866 0.313,0.7 0.7,0.7z"/>
  <path id="svg_117" fill="#6AA9DD" d="m213.999,67.4c0.386,0 0.7,-0.3134 0.7,-0.7c0,-0.3866 -0.314,-0.7 -0.7,-0.7c-0.387,0 -0.7,0.3134 -0.7,0.7c0,0.3866 0.313,0.7 0.7,0.7z"/>
  <path id="svg_118" stroke-linecap="round" stroke="#6AA9DD" d="m206,73.3003l0.4,-0.3c0.4,-0.3 1,-0.3 1.5,-0.1l1,0.4c0.5,0.2 1,0.2 1.5,-0.1l0.8,-0.5c0.4,-0.3 1,-0.3 1.5,-0.1l1.8,0.8"/>
  <path id="svg_119" stroke-miterlimit="10" stroke-width="0.25" stroke="#6AA9DD" fill="#6AA9DD" d="m176.125,64.3004c-0.2,-0.1 -0.4,-0.1 -0.5,0c0,0 -0.2,0.1 -0.9,0.2c-0.7,0 -2.4,-0.1 -3.8,-0.6c-0.8,-0.3 -1.7,-0.5 -2.5,-0.5c-0.2,0 -0.4,0 -0.5,0c-1.3,0 -2.5,0.3 -3.6,1c-0.2,0.1 -0.2,0.2 -0.2,0.4l0,11.6c0,0.3 0.1,0.5 0.3,0.5c0.6,0 0.5,-0.4 0.5,-0.6l0,-5.7c0.7,-0.3 3.2,-1.1 5.8,-0.1c1.6,0.6 3.5,0.7 4.3,0.7c0.8,0 1.3,-0.3 1.3,-0.3c0.2,-0.1 0.3,-0.2 0.3,-0.4l0,-5.7c-0.3,-0.2 -0.4,-0.4 -0.5,-0.5zm-0.4,5.9c-0.1,0 -0.7,0.1 -1,0.1c-0.7,0 -2.4,-0.1 -3.8,-0.6c-2.5,-1 -5,-0.5 -6.2,-0.1l0,-4.9c0.9,-0.5 2.2,-0.7 3.2,-0.7c0.1,0 0.3,0 0.4,0c0.7,0 1.5,0.2 2.2,0.4c1.6,0.6 3.5,0.7 4.3,0.7c0.2,0 0.8,0 1,-0.1l0,5.2l-0.1,0z"/>
  <path id="svg_120" stroke="#6AA9DD" d="m68.5,63.5l3.7,0c2.5,0 4.5,2 4.5,4.5c0,0.5 -0.4,0.9 -0.9,0.9l-10.9,0c-0.5,0 -0.9,-0.4 -0.9,-0.9c0,-2.5 2,-4.5 4.5,-4.5z"/>
  <path id="svg_121" stroke-linecap="round" stroke="#6AA9DD" d="m63.9006,68.8008c-0.2,0.1 -0.5,1.2 0,1.5c1.4,0.9 8.5,0.8 11.3,0.6c0.8,-0.1 1.6,-0.4 1.7,-1.2c0,-0.3 -0.1,-0.6 -0.6,-0.9"/>
  <path id="svg_122" stroke-linecap="round" stroke="#6AA9DD" d="m63.9011,70.6008l-0.2,0.4c-0.2,0.5 0.2,1 0.7,0.9c0.3,-0.1 0.5,0.1 0.7,0.3l0.1,0.2c0.3,0.5 1,0.6 1.5,0.2c0.3,-0.2 0.7,-0.3 1,-0.2l0.8,0.3c0.4,0.2 0.8,0.1 1.2,0l0.5,-0.2c0.4,-0.2 0.9,-0.2 1.3,0l0.5,0.2c0.4,0.2 0.8,0.2 1.2,-0.1l0.2,-0.1c0.3,-0.2 0.8,-0.2 1.1,0.1l0.2,0.2c0.3,0.3 0.8,0.2 1,-0.2l0.1,-0.2c0.1,-0.2 0,-0.3 0.2,-0.3c0.5,0 1.2,-0.3 1.1,-0.7l-0.4,-1.1"/>
  <path id="svg_123" stroke-linecap="round" stroke="#6AA9DD" d="m63.9007,72.1992c-0.1,0.2 -0.3,0.8 0,1.1c0.3,0.4 3,1.1 6.4,1.1c2.2,0 4.6,-0.3 6,-0.6c0.5,-0.1 0.9,-0.4 0.8,-0.9c0,-0.2 -0.2,-0.5 -0.4,-0.7"/>
  <path id="svg_124" stroke-linecap="round" stroke="#6AA9DD" d="m63.9004,73.3008c0,0.5 0.6,2.3 1.3,2.7c1.8,0.8 5.7,0.7 8.1,0.5c1.3,-0.1 2.5,-0.7 3.2,-1.8c0.3,-0.5 0.5,-1 0.5,-1.4"/>
  <path id="svg_125" fill="#6AA9DD" d="m72.0012,66.8996c0.1657,0 0.3,-0.1791 0.3,-0.4c0,-0.2209 -0.1343,-0.4 -0.3,-0.4c-0.1657,0 -0.3,0.1791 -0.3,0.4c0,0.2209 0.1343,0.4 0.3,0.4z"/>
  <path id="svg_126" fill="#6AA9DD" d="m73.3997,65.3996c0.1657,0 0.3,-0.1791 0.3,-0.4c0,-0.2209 -0.1343,-0.4 -0.3,-0.4c-0.1657,0 -0.3,0.1791 -0.3,0.4c0,0.2209 0.1343,0.4 0.3,0.4z"/>
  <path id="svg_127" fill="#6AA9DD" d="m73.3997,67.6008c0.1657,0 0.3,-0.1791 0.3,-0.4c0,-0.2209 -0.1343,-0.4 -0.3,-0.4c-0.1657,0 -0.3,0.1791 -0.3,0.4c0,0.2209 0.1343,0.4 0.3,0.4z"/>
  <path id="svg_128" fill="#6AA9DD" d="m74.7004,66.8996c0.1657,0 0.3,-0.1791 0.3,-0.4c0,-0.2209 -0.1343,-0.4 -0.3,-0.4c-0.1657,0 -0.3,0.1791 -0.3,0.4c0,0.2209 0.1343,0.4 0.3,0.4z"/>
  <path id="svg_129" fill="#6AA9DD" d="m71.3,65.3996c0.1657,0 0.3,-0.1791 0.3,-0.4c0,-0.2209 -0.1343,-0.4 -0.3,-0.4c-0.1657,0 -0.3,0.1791 -0.3,0.4c0,0.2209 0.1343,0.4 0.3,0.4z"/>
  <path id="svg_130" stroke="#6AA9DD" d="m44.5,72.0004l0,-7.6c0.1,0.1 0.8,0.9 2.8,3.1c2.5,-1.7 5.6,-0.7 6.9,0l2.4,-3.1l0,7.1c0,1.2 -0.1,2.5 -0.9,3.4c-1,1.2 -2.7,2.5 -5.3,2.5c-2.9,0 -4.5,-1.5 -5.3,-2.9c-0.6,-0.6 -0.6,-1.5 -0.6,-2.5z"/>
  <path id="svg_131" stroke-linecap="round" stroke="#6AA9DD" d="m41.5,71.0996l5.4,1.2"/>
  <path id="svg_132" stroke-linecap="round" stroke="#6AA9DD" d="m41.5,75.1004l5.4,-1.2"/>
  <path id="svg_133" stroke-linecap="round" stroke="#6AA9DD" d="m59.0992,71.0996l-5.4,1.2"/>
  <path id="svg_134" stroke-linecap="round" stroke="#6AA9DD" d="m59.0992,75.1004l-5.4,-1.2"/>
  <path id="svg_135" fill="#6AA9DD" d="m49.8006,73.3996l-0.5,-0.7c-0.2,-0.3 0,-0.6 0.3,-0.6l1.4,0c0.3,0 0.5,0.4 0.3,0.6l-0.7,1c-0.7,1.2 -2.6,1.1 -3.1,-0.3l-0.1,-0.2c-0.1,-0.2 0,-0.4 0.2,-0.5c0.2,-0.1 0.4,0 0.5,0.2l0.1,0.2c0.4,0.7 1.2,0.8 1.6,0.3z" clip-rule="evenodd" fill-rule="evenodd"/>
  <path id="svg_136" stroke-linecap="round" stroke="#6AA9DD" d="m52.7008,73.0996l-0.1,0.2c-0.4,1 -1.8,1.1 -2.3,0.2"/>
  <path id="svg_137" fill="#6AA9DD" d="m47.8992,71.4c0.3866,0 0.7,-0.3134 0.7,-0.7c0,-0.3866 -0.3134,-0.7 -0.7,-0.7c-0.3866,0 -0.7,0.3134 -0.7,0.7c0,0.3866 0.3134,0.7 0.7,0.7z"/>
  <path id="svg_138" fill="#6AA9DD" d="m52.7,71.4c0.3866,0 0.7,-0.3134 0.7,-0.7c0,-0.3866 -0.3134,-0.7 -0.7,-0.7c-0.3866,0 -0.7,0.3134 -0.7,0.7c0,0.3866 0.3134,0.7 0.7,0.7z"/>
  <path id="svg_139" stroke-miterlimit="10" stroke-width="0.1" stroke="#868686" fill="#868686" d="m32.8496,9.49922c0.6,0 1.1,-0.5 1.1,-1.2c0,-0.6 -0.5,-1.1 -1.1,-1.1c-0.6,0 -1.2,0.5 -1.2,1.1c0,0.6 0.6,1.2 1.2,1.2zm0,-1.6c0.2,0 0.4,0.2 0.4,0.4c0,0.2 -0.2,0.4 -0.4,0.4c-0.2,0 -0.4,-0.2 -0.4,-0.4c0,-0.2 0.2,-0.4 0.4,-0.4z"/>
  <path id="svg_140" stroke-miterlimit="10" stroke-width="0.1" stroke="#868686" fill="#868686" d="m27.2496,9.49922c0.6,0 1.2,-0.5 1.2,-1.2c0,-0.6 -0.5,-1.1 -1.2,-1.1c-0.6,0 -1.1,0.5 -1.1,1.1c0,0.6 0.5,1.2 1.1,1.2zm0,-1.6c0.2,0 0.4,0.2 0.4,0.4c0,0.2 -0.2,0.4 -0.4,0.4c-0.2,0 -0.4,-0.2 -0.4,-0.4c0,-0.2 0.2,-0.4 0.4,-0.4z"/>
  <path id="svg_141" stroke-miterlimit="10" stroke-width="0.1" stroke="#868686" fill="#868686" d="m34.6492,11.2c-0.1,-0.1 -0.2,-0.2 -0.3,-0.2l-8.6,0c-0.1,0 -0.2,0.1 -0.3,0.2c-0.1,0.1 -0.1,0.2 0,0.4c0.7,2 2.5,3.3 4.6,3.3c2.1,0 3.9,-1.3 4.6,-3.3c0.1,-0.2 0.1,-0.3 0,-0.4zm-4.6,2.9c-1.6,0 -3,-0.9 -3.7,-2.2l7.3,0c-0.6,1.3 -2,2.2 -3.6,2.2z"/>
  <path id="svg_142" stroke-miterlimit="10" stroke-width="0.1" stroke="#868686" fill="#868686" d="m30.05,3c-3.8,0 -7,3.1 -7,7c0,3.9 3.1,7 7,7c3.9,0 7,-3.1 7,-7c0,-3.9 -3.2,-7 -7,-7zm0,13.2c-3.4,0 -6.2,-2.8 -6.2,-6.2c0,-3.4 2.8,-6.2 6.2,-6.2c3.4,0 6.2,2.8 6.2,6.2c0,3.4 -2.8,6.2 -6.2,6.2z"/>
  <path id="svg_143" stroke="#868686" d="m84.2008,13.4004l2.3,0c0.2,0 0.4,0.2 0.4,0.4l0,2.1c0,0.2 -0.2,0.4 -0.4,0.4l-2.3,0c-0.2,0 -0.4,-0.2 -0.4,-0.4l0,-2.1c0,-0.2 0.1,-0.4 0.4,-0.4z"/>
  <path id="svg_144" stroke="#868686" d="m93.6012,13.4004l2.4,0c0.2,0 0.4,0.2 0.4,0.4l0,2.1c0,0.2 -0.2,0.4 -0.4,0.4l-2.4,0c-0.2,0 -0.4,-0.2 -0.4,-0.4l0,-2.1c0,-0.2 0.2,-0.4 0.4,-0.4z"/>
  <path id="svg_145" stroke="#868686" d="m83.8008,8.40039l12.6,0l0,5.00001l-12.6,0l0,-5.00001z"/>
  <path id="svg_146" stroke="#868686" d="m85.6008,3.59961l8.9,0c1,0 1.9,0.8 1.9,1.9l0,3.1l-12.6,0l0,-3.1c0,-1.1 0.8,-1.9 1.8,-1.9z"/>
  <path id="svg_147" fill="#868686" d="m86.3004,11.8c0.4971,0 0.9,-0.4029 0.9,-0.9c0,-0.4971 -0.4029,-0.9 -0.9,-0.9c-0.497,0 -0.9,0.4029 -0.9,0.9c0,0.4971 0.403,0.9 0.9,0.9z"/>
  <path id="svg_148" fill="#868686" d="m93.9,11.8c0.4971,0 0.9,-0.4029 0.9,-0.9c0,-0.4971 -0.4029,-0.9 -0.9,-0.9c-0.497,0 -0.9,0.4029 -0.9,0.9c0,0.4971 0.403,0.9 0.9,0.9z"/>
  <path id="svg_149" stroke="#868686" d="m116.4,10c0,3.6 -2.9,6.5 -6.4,6.5c-3.5,0 -6.4,-2.9 -6.4,-6.5c0,-3.6 2.9,-6.5 6.4,-6.5c3.5,0 6.4,2.9 6.4,6.5z"/>
  <path id="svg_150" stroke="#868686" d="m116.299,8.6l0,0.1c-0.9,0.1 -2.9,0.1 -4.6,-1.2c-1.1,-0.8 -2,-1.7 -2.6,-2.5c-0.3,-0.4 -0.6,-0.8 -0.7,-1.1c-0.1,-0.1 -0.1,-0.2 -0.1,-0.2c0.5,-0.1 1.2,-0.2 2,-0.2c1.2,0 2.5,0.3 3.5,1.1c1,0.8 1.7,1.8 2.1,2.8c0.2,0.5 0.3,0.9 0.4,1.2z"/>
  <path id="svg_151" stroke="#868686" d="m104,12.0992l0,-0.1c0.9,-0.2 2.9,-0.4 4.7,0.6c1.1,0.6 1.9,1.5 2.4,2.3c0.4,0.5 0.6,1 0.7,1.3c-0.4,0.1 -1,0.2 -1.7,0.3c-1,0 -2.1,-0.1 -3.2,-0.8c-1.1,-0.6 -1.9,-1.6 -2.4,-2.5c-0.3,-0.4 -0.4,-0.8 -0.5,-1.1z"/>
  <path id="svg_152" stroke-linecap="round" stroke="#868686" d="m133.299,3.89961c-0.1,-0.1 -0.2,-0.1 -0.3,-0.1l-1.2,0l-0.3,0.6c-0.7,1.4 -2.6,1.4 -3.3,0.1l-0.4,-0.7l-1.3,0c-0.1,0 -0.2,0 -0.3,0.1l-2.6,2.9l1.4,2l0.8,-0.8l0.6,-0.7l0,0.9l0.1,8.19999l6.8,0l0.1,-8.19999l0,-0.9l0.6,0.7l0.8,0.8l1.4,-2l-2.9,-2.9zm0,0l0.3,-0.3"/>
  <path id="svg_153" stroke="#868686" d="m130,7.69922l2,0l0,0.9c0,0.4 -0.4,0.7 -1,0.7c-0.6,0 -1,-0.3 -1,-0.7l0,-0.9z"/>
  <path id="svg_154" stroke="#868686" d="m145.999,14.2996c0,1.2 -1,2.2 -2.2,2.2c-1.2,0 -2.2,-1 -2.2,-2.2c0,-1.2 1,-2.2 2.2,-2.2c1.2,0 2.2,1 2.2,2.2z"/>
  <path id="svg_155" stroke="#868686" d="m156.8,14.2996c0,1.2 -1,2.2 -2.2,2.2c-1.2,0 -2.2,-1 -2.2,-2.2c0,-1.2 1,-2.2 2.2,-2.2c1.2,0 2.2,1 2.2,2.2z"/>
  <path id="svg_156" stroke="#868686" d="m146,4.40039l0,9.90001"/>
  <path id="svg_157" stroke="#868686" d="m156.9,4.40039l0,9.90001"/>
  <path id="svg_158" stroke="#868686" d="m146,3.5l10.8,0l0,2.7l-10.8,0l0,-2.7z"/>
  <path id="svg_159" fill="#868686" d="m190.80001,3.09961c-0.3,0 -0.5,0 -0.8,0c-2.1,0 -4,1 -5.3,2.5l-0.1,0l-0.1,-0.1l-1,-1.2l-0.3,3.4l3.4,0.3l-1.1,-1.3l-0.1,-0.1l0.1,-0.1c1.1,-1.4 3,-2.3 5,-2.1c3.2,0.3 5.5,3.1 5.2,6.29999c-0.3,3 -3.1,5.3 -6.1,5.1c-3.1,-0.2 -5.4,-2.9 -5.3,-5.99999l-1.3,-0.3c-0.2,3.79999 2.6,7.09999 6.3,7.39999c3.9,0.4 7.3,-2.6 7.6,-6.5c0.3,-3.59999 -2.5,-6.89999 -6.1,-7.29999z"/>
  <path id="svg_160" fill="#868686" d="m190.30001,7.39883c0,-0.3 -0.3,-0.6 -0.6,-0.6c-0.3,0 -0.7,0.3 -0.7,0.6l0,3.19997c0,0.2 0.1,0.3 0.2,0.4c0.1,0.1 0.3,0.2 0.4,0.2l2.4,0c0.4,0 0.6,-0.3 0.6,-0.6c0,-0.3 -0.3,-0.59997 -0.6,-0.59997l-1.6,0l-0.2,0l0,-0.2l0.1,-2.4z"/>
  <path id="svg_161" stroke="#868686" d="m206.2,3.40039l7.7,0c1.5,0 2.7,1.2 2.7,2.7l0,7.70001c0,1.5 -1.2,2.7 -2.7,2.7l-7.7,0c-1.5,0 -2.7,-1.2 -2.7,-2.7l0,-7.70001c-0.1,-1.5 1.2,-2.7 2.7,-2.7z"/>
  <path id="svg_162" fill="#868686" d="m205.999,9.60117c0.386,0 0.7,-0.3134 0.7,-0.7c0,-0.3866 -0.314,-0.7 -0.7,-0.7c-0.387,0 -0.7,0.3134 -0.7,0.7c0,0.3866 0.313,0.7 0.7,0.7z"/>
  <path id="svg_163" fill="#868686" d="m213.999,7.4c0.386,0 0.7,-0.3134 0.7,-0.7c0,-0.3866 -0.314,-0.7 -0.7,-0.7c-0.387,0 -0.7,0.3134 -0.7,0.7c0,0.3866 0.313,0.7 0.7,0.7z"/>
  <path id="svg_164" stroke-linecap="round" stroke="#868686" d="m206,13.3003l0.4,-0.3c0.4,-0.3 1,-0.3 1.5,-0.1l1,0.4c0.5,0.2 1,0.2 1.5,-0.1l0.8,-0.5c0.4,-0.3 1,-0.3 1.5,-0.1l1.8,0.8"/>
  <path id="svg_165" stroke-miterlimit="10" stroke-width="0.25" stroke="#868686" fill="#868686" d="m176.125,4.30078c-0.2,-0.1 -0.4,-0.1 -0.5,0c0,0 -0.2,0.1 -0.9,0.1c-0.7,0 -2.4,-0.1 -3.8,-0.6c-0.8,-0.3 -1.7,-0.5 -2.5,-0.5c-0.2,0 -0.4,0 -0.5,0c-1.3,0 -2.5,0.3 -3.6,1c-0.2,0.1 -0.2,0.2 -0.2,0.4l0,11.60002c0,0.3 0.1,0.5 0.3,0.5c0.6,0 0.5,-0.4 0.5,-0.6l0,-5.7c0.7,-0.3 3.2,-1.10002 5.8,-0.1c1.6,0.6 3.5,0.7 4.3,0.7c0.8,0 1.3,-0.3 1.3,-0.3c0.2,-0.1 0.3,-0.2 0.3,-0.4l0,-5.70002c-0.3,-0.2 -0.4,-0.3 -0.5,-0.4zm-0.4,5.90002c-0.1,0 -0.7,0.1 -1,0.1c-0.7,0 -2.4,-0.1 -3.8,-0.60002c-2.5,-1 -5,-0.5 -6.2,-0.1l0,-4.9c0.9,-0.5 2.2,-0.7 3.2,-0.7c0.1,0 0.3,0 0.4,0c0.7,0 1.5,0.2 2.2,0.4c1.6,0.6 3.5,0.7 4.3,0.7c0.2,0 0.8,0 1,-0.1l0,5.20002l-0.1,0z"/>
  <path id="svg_166" stroke="#868686" d="m68.5,3.5l3.7,0c2.5,0 4.5,2 4.5,4.5c0,0.5 -0.4,0.9 -0.9,0.9l-10.9,0c-0.5,0 -0.9,-0.4 -0.9,-0.9c0,-2.5 2,-4.5 4.5,-4.5z"/>
  <path id="svg_167" stroke-linecap="round" stroke="#868686" d="m63.9006,8.69922c-0.2,0.1 -0.5,1.2 0,1.49998c1.4,0.9 8.5,0.8 11.3,0.6c0.8,-0.1 1.6,-0.4 1.7,-1.19998c0,-0.3 -0.1,-0.6 -0.6,-0.9"/>
  <path id="svg_168" stroke-linecap="round" stroke="#868686" d="m63.9011,10.5992l-0.2,0.4c-0.2,0.5 0.2,1 0.7,0.9c0.3,-0.1 0.5,0.1 0.7,0.3l0.1,0.2c0.3,0.5 1,0.6 1.5,0.2c0.3,-0.2 0.7,-0.3 1,-0.2l0.8,0.3c0.4,0.1 0.8,0.1 1.2,0l0.5,-0.2c0.4,-0.2 0.9,-0.2 1.3,0l0.5,0.2c0.4,0.2 0.8,0.1 1.2,-0.1l0.2,-0.1c0.3,-0.2 0.8,-0.1 1.1,0.1l0.2,0.2c0.3,0.3 0.8,0.2 1,-0.2l0.1,-0.2c0.1,-0.2 0,-0.3 0.2,-0.4c0.5,0 1.2,-0.3 1.1,-0.7l-0.4,-1.1"/>
  <path id="svg_169" stroke-linecap="round" stroke="#868686" d="m63.9007,12.0996c-0.1,0.2 -0.3,0.8 0,1.1c0.3,0.4 3,1.1 6.4,1.1c2.2,0 4.6,-0.3 6,-0.6c0.5,-0.1 0.9,-0.4 0.8,-0.9c0,-0.2 -0.2,-0.5 -0.4,-0.7"/>
  <path id="svg_170" stroke-linecap="round" stroke="#868686" d="m63.9004,13.2992c0,0.5 0.6,2.4 1.3,2.6c1.8,0.8 5.7,0.7 8.1,0.5c1.3,-0.1 2.5,-0.7 3.2,-1.8c0.3,-0.5 0.5,-1 0.5,-1.4"/>
  <path id="svg_171" fill="#868686" d="m72.0012,6.89961c0.1657,0 0.3,-0.17909 0.3,-0.4c0,-0.22091 -0.1343,-0.4 -0.3,-0.4c-0.1657,0 -0.3,0.17909 -0.3,0.4c0,0.22091 0.1343,0.4 0.3,0.4z"/>
  <path id="svg_172" fill="#868686" d="m73.3997,5.3c0.1657,0 0.3,-0.17909 0.3,-0.4c0,-0.22091 -0.1343,-0.4 -0.3,-0.4c-0.1657,0 -0.3,0.17909 -0.3,0.4c0,0.22091 0.1343,0.4 0.3,0.4z"/>
  <path id="svg_173" fill="#868686" d="m73.3997,7.60078c0.1657,0 0.3,-0.17909 0.3,-0.4c0,-0.22091 -0.1343,-0.4 -0.3,-0.4c-0.1657,0 -0.3,0.17909 -0.3,0.4c0,0.22091 0.1343,0.4 0.3,0.4z"/>
  <path id="svg_174" fill="#868686" d="m74.7004,6.89961c0.1657,0 0.3,-0.17909 0.3,-0.4c0,-0.22091 -0.1343,-0.4 -0.3,-0.4c-0.1657,0 -0.3,0.17909 -0.3,0.4c0,0.22091 0.1343,0.4 0.3,0.4z"/>
  <path id="svg_175" fill="#868686" d="m71.3,5.3c0.1657,0 0.3,-0.17909 0.3,-0.4c0,-0.22091 -0.1343,-0.4 -0.3,-0.4c-0.1657,0 -0.3,0.17909 -0.3,0.4c0,0.22091 0.1343,0.4 0.3,0.4z"/>
  <path id="svg_176" stroke="#868686" d="m44.5,12l0,-7.5c0.1,0.1 0.8,0.9 2.8,3.1c2.5,-1.7 5.6,-0.7 6.9,0l2.4,-3.1l0,7.1c0,1.2 -0.1,2.5 -0.9,3.4c-1,1.2 -2.7,2.5 -5.3,2.5c-2.9,0 -4.5,-1.5 -5.3,-2.9c-0.6,-0.7 -0.6,-1.7 -0.6,-2.6z"/>
  <path id="svg_177" stroke-linecap="round" stroke="#868686" d="m41.5,11l5.4,1.2"/>
  <path id="svg_178" stroke-linecap="round" stroke="#868686" d="m41.5,15.1004l5.4,-1.2"/>
  <path id="svg_179" stroke-linecap="round" stroke="#868686" d="m59.0992,11l-5.4,1.2"/>
  <path id="svg_180" stroke-linecap="round" stroke="#868686" d="m59.0992,15.1004l-5.4,-1.2"/>
  <path id="svg_181" fill="#868686" d="m49.8006,13.3996l-0.5,-0.7c-0.2,-0.3 0,-0.6 0.3,-0.6l1.4,0c0.3,0 0.5,0.4 0.3,0.6l-0.7,1c-0.7,1.2 -2.6,1.1 -3.1,-0.3l-0.1,-0.2c-0.1,-0.2 0,-0.4 0.2,-0.5c0.2,-0.1 0.4,0 0.5,0.2l0.1,0.2c0.4,0.6 1.2,0.8 1.6,0.3z" clip-rule="evenodd" fill-rule="evenodd"/>
  <path id="svg_182" stroke-linecap="round" stroke="#868686" d="m52.7008,13.0996l-0.1,0.2c-0.4,1 -1.8,1.1 -2.3,0.2"/>
  <path id="svg_183" fill="#868686" d="m47.8992,11.4c0.3866,0 0.7,-0.3134 0.7,-0.7c0,-0.3866 -0.3134,-0.7 -0.7,-0.7c-0.3866,0 -0.7,0.3134 -0.7,0.7c0,0.3866 0.3134,0.7 0.7,0.7z"/>
  <path id="svg_184" fill="#868686" d="m52.7,11.4c0.3866,0 0.7,-0.3134 0.7,-0.7c0,-0.3866 -0.3134,-0.7 -0.7,-0.7c-0.3866,0 -0.7,0.3134 -0.7,0.7c0,0.3866 0.3134,0.7 0.7,0.7z"/>
  <path id="svg_185" stroke="#868686" d="m9.9986,15.0208l-3.41859,1.8785c-0.40916,0.2249 -0.91523,0.0604 -1.13033,-0.3672c-0.08566,-0.1703 -0.11522,-0.3654 -0.0841,-0.555l0.65289,-3.9788l-2.76571,-2.81775c-0.33101,-0.33725 -0.33779,-0.89111 -0.01513,-1.2371c0.12849,-0.13777 0.29685,-0.22743 0.47901,-0.25509l3.82211,-0.5805l1.70931,-3.62c0.20458,-0.43327 0.70644,-0.61116 1.12094,-0.39733c0.1651,0.08515 0.2987,0.2248 0.3802,0.39733l1.7093,3.62l3.8221,0.5805c0.4575,0.06947 0.7744,0.5134 0.7079,0.99154c-0.0264,0.19039 -0.1122,0.36636 -0.244,0.50065l-2.7657,2.81775l0.6529,3.9788c0.0781,0.4762 -0.2279,0.9285 -0.6835,1.0101c-0.1814,0.0326 -0.368,0.0017 -0.531,-0.0879l-3.4186,-1.8785z" clip-rule="evenodd" fill-rule="evenodd"/>
  <path id="svg_186" stroke="#3371B7" d="m9.9986,35.0208l-3.41859,1.8785c-0.40916,0.2249 -0.91523,0.0604 -1.13033,-0.3672c-0.08566,-0.1703 -0.11522,-0.3654 -0.0841,-0.555l0.65289,-3.9788l-2.76571,-2.8177c-0.33101,-0.3373 -0.33779,-0.8912 -0.01513,-1.2371c0.12849,-0.1378 0.29685,-0.2275 0.47901,-0.2551l3.82211,-0.5805l1.70931,-3.62c0.20458,-0.4333 0.70644,-0.6112 1.12094,-0.3974c0.1651,0.0852 0.2987,0.2248 0.3802,0.3974l1.7093,3.62l3.8221,0.5805c0.4575,0.0694 0.7744,0.5134 0.7079,0.9915c-0.0264,0.1904 -0.1122,0.3664 -0.244,0.5007l-2.7657,2.8177l0.6529,3.9788c0.0781,0.4762 -0.2279,0.9285 -0.6835,1.0101c-0.1814,0.0326 -0.368,0.0017 -0.531,-0.0879l-3.4186,-1.8785z" clip-rule="evenodd" fill-rule="evenodd"/>
  <path id="svg_187" stroke="#C0C0BF" d="m9.9986,55.0208l-3.41859,1.8785c-0.40916,0.2249 -0.91523,0.0604 -1.13033,-0.3672c-0.08566,-0.1703 -0.11522,-0.3654 -0.0841,-0.555l0.65289,-3.9788l-2.76571,-2.8177c-0.33101,-0.3373 -0.33779,-0.8912 -0.01513,-1.2371c0.12849,-0.1378 0.29685,-0.2275 0.47901,-0.2551l3.82211,-0.5805l1.70931,-3.62c0.20458,-0.4333 0.70644,-0.6112 1.12094,-0.3974c0.1651,0.0852 0.2987,0.2248 0.3802,0.3974l1.7093,3.62l3.8221,0.5805c0.4575,0.0694 0.7744,0.5134 0.7079,0.9915c-0.0264,0.1904 -0.1122,0.3664 -0.244,0.5007l-2.7657,2.8177l0.6529,3.9788c0.0781,0.4762 -0.2279,0.9285 -0.6835,1.0101c-0.1814,0.0326 -0.368,0.0017 -0.531,-0.0879l-3.4186,-1.8785z" clip-rule="evenodd" fill-rule="evenodd"/>
  <path id="svg_188" stroke="#6AA9DD" d="m9.9986,75.0208l-3.41859,1.8785c-0.40916,0.2249 -0.91523,0.0604 -1.13033,-0.3672c-0.08566,-0.1703 -0.11522,-0.3654 -0.0841,-0.555l0.65289,-3.9788l-2.76571,-2.8177c-0.33101,-0.3373 -0.33779,-0.8912 -0.01513,-1.2371c0.12849,-0.1378 0.29685,-0.2275 0.47901,-0.2551l3.82211,-0.5805l1.70931,-3.62c0.20458,-0.4333 0.70644,-0.6112 1.12094,-0.3974c0.1651,0.0852 0.2987,0.2248 0.3802,0.3974l1.7093,3.62l3.8221,0.5805c0.4575,0.0694 0.7744,0.5134 0.7079,0.9915c-0.0264,0.1904 -0.1122,0.3664 -0.244,0.5007l-2.7657,2.8177l0.6529,3.9788c0.0781,0.4762 -0.2279,0.9285 -0.6835,1.0101c-0.1814,0.0326 -0.368,0.0017 -0.531,-0.0879l-3.4186,-1.8785z" clip-rule="evenodd" fill-rule="evenodd"/>
 </g>
</svg>